<?xml version="1.0" encoding="UTF-8"?>
<svg version="1.1" xmlns="http://www.w3.org/2000/svg" width="1200" height="848">
<path d="M0 0 C0.79599609 0.34788574 1.59199219 0.69577148 2.41210938 1.05419922 C37.95357567 16.7490464 71.44803788 41.92724326 95 73 C95.76062744 73.97864014 95.76062744 73.97864014 96.53662109 74.97705078 C120.46231165 105.81353463 135.40042725 140.10124187 144 178 C144.25523437 179.10504883 144.25523437 179.10504883 144.515625 180.23242188 C150.86102383 208.26705033 149.22185542 236.83224694 147.18359375 265.22875977 C147.07838205 266.81686886 147 268.4084096 147 270 C146.34 270 145.68 270 145 270 C144.93941406 270.66386719 144.87882812 271.32773437 144.81640625 272.01171875 C143.98418278 280.78207381 143.98418278 280.78207381 143 285 C143.66 285 144.32 285 145 285 C145 287.33333333 145 289.66666667 145 292 C143.68 292.33 142.36 292.66 141 293 C140.77650879 293.84675293 140.55301758 294.69350586 140.32275391 295.56591797 C137.91760778 304.36060261 134.89805446 312.70358104 131.375 321.125 C130.88515625 322.31609375 130.3953125 323.5071875 129.890625 324.734375 C126.04579346 334.04180874 126.04579346 334.04180874 124 338 C124.33 338.33 124.66 338.66 125 339 C124.71269945 341.33944736 124.38063221 343.6739143 124 346 C122.68 345.67 121.36 345.34 120 345 C118.98758753 346.88923398 117.99052575 348.78669944 117 350.6875 C116.443125 351.74324219 115.88625 352.79898437 115.3125 353.88671875 C114.0327726 356.92226262 113.71148957 358.76026826 114 362 C112.68 362 111.36 362 110 362 C108.18330713 364.12323972 108.18330713 364.12323972 106.5625 367 C92.69170361 388.89308535 73.56446553 409.26961457 52.75927734 424.68945312 C50.97587587 426.01797091 49.21590484 427.37360037 47.45703125 428.734375 C-3.69595784 467.85949909 -70.83230109 483.34703761 -134.2265625 475.0390625 C-186.36235779 467.4444187 -234.05848495 444.54309921 -272 408 C-272.65935547 407.36787598 -273.31871094 406.73575195 -273.99804688 406.08447266 C-284.79288719 395.6807854 -294.30349619 384.98402879 -303.0078125 372.796875 C-303.50812988 372.10094238 -304.00844727 371.40500977 -304.52392578 370.68798828 C-305.48862167 369.3397117 -306.44321852 367.98413631 -307.38623047 366.62060547 C-308.51871108 365.0266337 -309.75197391 363.50522066 -311 362 C-311.99 362 -312.98 362 -314 362 C-314.08121094 360.83210938 -314.16242187 359.66421875 -314.24609375 358.4609375 C-314.83508604 353.79611859 -316.60830743 350.56856705 -319.0625 346.625 C-322.57916369 340.69076315 -325.66061909 334.69040572 -328.4375 328.375 C-328.76693604 327.62943848 -329.09637207 326.88387695 -329.43579102 326.11572266 C-330.81661921 322.93451941 -332.03923327 319.86882763 -333.03515625 316.5390625 C-333.35355469 315.70117188 -333.67195312 314.86328125 -334 314 C-334.99 313.67 -335.98 313.34 -337 313 C-336.979375 312.05125 -336.95875 311.1025 -336.9375 310.125 C-336.77448174 307.09333717 -336.77448174 307.09333717 -338 305 C-338.33 305.99 -338.66 306.98 -339 308 C-339.99 308 -340.98 308 -342 308 C-341.85957123 306.35369672 -341.71250671 304.70795821 -341.5625 303.0625 C-341.48128906 302.14597656 -341.40007813 301.22945313 -341.31640625 300.28515625 C-341 298 -341 298 -340 297 C-340.26751326 295.40966673 -340.61571837 293.83280011 -340.99609375 292.265625 C-341.22490234 291.29882812 -341.45371094 290.33203125 -341.68945312 289.3359375 C-342.05973633 287.80839844 -342.05973633 287.80839844 -342.4375 286.25 C-342.92051337 284.25644879 -343.39855187 282.26168425 -343.87109375 280.265625 C-344.08693115 279.37649414 -344.30276855 278.48736328 -344.52514648 277.57128906 C-345.00252292 274.98633864 -345.08522135 272.62210468 -345 270 C-345.99 269.67 -346.98 269.34 -348 269 C-347.82799072 268.43676025 -347.65598145 267.87352051 -347.47875977 267.29321289 C-346.95339746 264.77677836 -347.06036094 262.85985444 -347.33984375 260.30859375 C-347.43370361 259.37813232 -347.52756348 258.4476709 -347.62426758 257.48901367 C-347.72763428 256.48201416 -347.83100098 255.47501465 -347.9375 254.4375 C-353.93435988 188.46200469 -336.0511613 123.81844001 -294.3125 72.0625 C-292.88514675 70.36640884 -291.44815716 68.67836329 -290 67 C-289.03126953 65.86498047 -289.03126953 65.86498047 -288.04296875 64.70703125 C-285.74752191 62.08679843 -283.39383606 59.52992182 -281 57 C-280.4121875 56.37818848 -279.824375 55.75637695 -279.21875 55.11572266 C-269.21205465 44.62010891 -258.79041741 35.43234948 -247 27 C-246.42830078 26.58314941 -245.85660156 26.16629883 -245.26757812 25.73681641 C-209.24929252 -0.52021112 -167.17754791 -15.46294414 -123 -20 C-121.7934375 -20.13148437 -120.586875 -20.26296875 -119.34375 -20.3984375 C-78.90155171 -24.17712774 -37.00700161 -16.32527901 0 0 Z M-313 357 C-312 359 -312 359 -312 359 Z " fill="#E3E2E2" transform="translate(949,114)"/>
<path d="M0 0 C163.68 0 327.36 0 496 0 C496 5.90963912 495.90761777 11.68509245 495.5 17.5625 C495.45230469 18.28501953 495.40460938 19.00753906 495.35546875 19.75195312 C495.23960617 21.50147804 495.12019268 23.25076723 495 25 C494.34 25 493.68 25 493 25 C492.93941406 25.66386719 492.87882812 26.32773437 492.81640625 27.01171875 C491.98418278 35.78207381 491.98418278 35.78207381 491 40 C491.66 40 492.32 40 493 40 C493 42.33333333 493 44.66666667 493 47 C491.68 47.33 490.36 47.66 489 48 C488.77650879 48.84675293 488.55301758 49.69350586 488.32275391 50.56591797 C485.91760778 59.36060261 482.89805446 67.70358104 479.375 76.125 C478.88515625 77.31609375 478.3953125 78.5071875 477.890625 79.734375 C474.04579346 89.04180874 474.04579346 89.04180874 472 93 C472.33 93.33 472.66 93.66 473 94 C472.71269945 96.33944736 472.38063221 98.6739143 472 101 C470.68 100.67 469.36 100.34 468 100 C466.98758753 101.88923398 465.99052575 103.78669944 465 105.6875 C464.443125 106.74324219 463.88625 107.79898438 463.3125 108.88671875 C462.0327726 111.92226262 461.71148957 113.76026826 462 117 C460.68 117 459.36 117 458 117 C456.18330713 119.12323972 456.18330713 119.12323972 454.5625 122 C440.69170361 143.89308535 421.56446553 164.26961457 400.75927734 179.68945312 C398.97587587 181.01797091 397.21590484 182.37360037 395.45703125 183.734375 C344.30404216 222.85949909 277.16769891 238.34703761 213.7734375 230.0390625 C161.63764221 222.4444187 113.94151505 199.54309921 76 163 C75.34064453 162.36787598 74.68128906 161.73575195 74.00195312 161.08447266 C63.20711281 150.6807854 53.69650381 139.98402879 44.9921875 127.796875 C44.49187012 127.10094238 43.99155273 126.40500977 43.47607422 125.68798828 C42.51137833 124.3397117 41.55678148 122.98413631 40.61376953 121.62060547 C39.48128892 120.0266337 38.24802609 118.50522066 37 117 C36.01 117 35.02 117 34 117 C33.91878906 115.83210938 33.83757813 114.66421875 33.75390625 113.4609375 C33.16491396 108.79611859 31.39169257 105.56856705 28.9375 101.625 C25.42083631 95.69076315 22.33938091 89.69040572 19.5625 83.375 C19.23306396 82.62943848 18.90362793 81.88387695 18.56420898 81.11572266 C17.18338079 77.93451941 15.96076673 74.86882763 14.96484375 71.5390625 C14.64644531 70.70117188 14.32804688 69.86328125 14 69 C13.01 68.67 12.02 68.34 11 68 C11.020625 67.05125 11.04125 66.1025 11.0625 65.125 C11.22551826 62.09333717 11.22551826 62.09333717 10 60 C9.67 60.99 9.34 61.98 9 63 C8.01 63 7.02 63 6 63 C6.14042877 61.35369672 6.28749329 59.70795821 6.4375 58.0625 C6.55931641 56.68771484 6.55931641 56.68771484 6.68359375 55.28515625 C7 53 7 53 8 52 C7.73248674 50.40966673 7.38428163 48.83280011 7.00390625 47.265625 C6.77509766 46.29882812 6.54628906 45.33203125 6.31054688 44.3359375 C6.06369141 43.31757813 5.81683594 42.29921875 5.5625 41.25 C5.07948663 39.25644879 4.60144813 37.26168425 4.12890625 35.265625 C3.80515015 33.93192871 3.80515015 33.93192871 3.47485352 32.57128906 C2.99747708 29.98633864 2.91477865 27.62210468 3 25 C2.01 24.67 1.02 24.34 0 24 C0.185625 23.505 0.37125 23.01 0.5625 22.5 C1.15380428 19.84065953 1.15380428 19.84065953 0.5625 16.5 C-0.12008734 11.03930126 0 5.50319509 0 0 Z M35 112 C36 114 36 114 36 114 Z " fill="#E24D37" transform="translate(601,359)"/>
<path d="M0 0 C0.35113462 0.48738642 0.70226924 0.97477283 1.0640443 1.47692853 C3.96578638 3.75981164 6.31730812 3.37238926 9.97529125 3.36914349 C10.69293485 3.37260502 11.41057846 3.37606655 12.14996883 3.37963298 C14.57334525 3.38762266 16.99613296 3.37407502 19.41947937 3.36076355 C21.16686052 3.36207085 22.9142411 3.36469587 24.66161853 3.36853105 C29.47778092 3.37526285 34.29374448 3.36320643 39.10988152 3.34819686 C44.2980164 3.33527948 49.48613946 3.33962291 54.67428589 3.34190369 C63.66790628 3.34347915 72.66146153 3.33404147 81.65506554 3.31719017 C94.65840631 3.29284166 107.66171549 3.28499915 120.66507659 3.2812262 C141.76054094 3.27465519 162.85597054 3.25467643 183.95141602 3.22631836 C204.44750799 3.19879458 224.94359055 3.17755277 245.43969727 3.16479492 C246.70240822 3.16400675 247.96511918 3.16321858 249.26609411 3.16240653 C255.60054429 3.1584915 261.93499453 3.15470036 268.26944482 3.15097082 C320.84632056 3.1198547 373.42315859 3.06700125 426 3 C426.33 2.34 426.66 1.68 427 1 C427.66 1 428.32 1 429 1 C429 2.65 429 4.3 429 6 C427.68 6 426.36 6 425 6 C423.18330713 8.12323972 423.18330713 8.12323972 421.5625 11 C407.69170361 32.89308535 388.56446553 53.26961457 367.75927734 68.68945312 C365.97587587 70.01797091 364.21590484 71.37360037 362.45703125 72.734375 C311.30404216 111.85949909 244.16769891 127.34703761 180.7734375 119.0390625 C128.63764221 111.4444187 80.94151505 88.54309921 43 52 C42.34064453 51.36787598 41.68128906 50.73575195 41.00195312 50.08447266 C30.20711281 39.6807854 20.69650381 28.98402879 11.9921875 16.796875 C11.49187012 16.10094238 10.99155273 15.40500977 10.47607422 14.68798828 C9.51137833 13.3397117 8.55678148 11.98413631 7.61376953 10.62060547 C6.48128892 9.0266337 5.24802609 7.50522066 4 6 C3.01 6 2.02 6 1 6 C0.67 4.02 0.34 2.04 0 0 Z " fill="#E54225" transform="translate(634,470)"/>
<path d="M0 0 C163.68 0 327.36 0 496 0 C496 5.90963912 495.90761777 11.68509245 495.5 17.5625 C495.45230469 18.28501953 495.40460938 19.00753906 495.35546875 19.75195312 C495.23960617 21.50147804 495.12019268 23.25076723 495 25 C494.34 25 493.68 25 493 25 C493 23.68 493 22.36 493 21 C331.63 21 170.26 21 4 21 C4.33 25.62 4.66 30.24 5 35 C4.67 35 4.34 35 4 35 C3.67 31.7 3.34 28.4 3 25 C2.01 24.67 1.02 24.34 0 24 C0.185625 23.505 0.37125 23.01 0.5625 22.5 C1.15380428 19.84065953 1.15380428 19.84065953 0.5625 16.5 C-0.12008734 11.03930126 0 5.50319509 0 0 Z " fill="#E44225" transform="translate(601,359)"/>
<path d="M0 0 C161.37 0 322.74 0 489 0 C489 10.125 489 10.125 488 14.5625 C487.814375 15.40941406 487.62875 16.25632812 487.4375 17.12890625 C487.293125 17.74636719 487.14875 18.36382812 487 19 C487.66 19 488.32 19 489 19 C489 19.66 489 20.32 489 21 C328.29 21 167.58 21 2 21 C-1.14466038 14.71067925 0.3695766 7.0219554 0 0 Z " fill="#FDFDFD" transform="translate(605,380)"/>
<path d="M0 0 C46.08659515 -0.06845233 92.17319477 -0.13213753 138.25982666 -0.16937256 C139.28246777 -0.1702009 139.28246777 -0.1702009 140.3257683 -0.17104598 C155.14116407 -0.18301675 169.95656038 -0.1940976 184.7719575 -0.20426132 C192.03709939 -0.2092508 199.30224114 -0.214437 206.56738281 -0.21972656 C207.29036364 -0.2202496 208.01334447 -0.22077263 208.7582338 -0.22131152 C232.20517105 -0.23836632 255.65206982 -0.26841855 279.09898375 -0.30518888 C303.18752414 -0.34289696 327.27604322 -0.36753659 351.36461263 -0.37565996 C354.76454171 -0.37681263 358.16447073 -0.37811518 361.56439972 -0.37950897 C362.23357486 -0.37977866 362.90275 -0.38004836 363.59220318 -0.38032622 C374.37750839 -0.38505878 385.16274785 -0.40362629 395.94802621 -0.42732814 C406.78275668 -0.45084484 417.61741865 -0.4595555 428.45217344 -0.45400551 C434.32601772 -0.45143398 440.1996685 -0.45547933 446.0734787 -0.4768219 C451.44495228 -0.49619755 456.81610109 -0.49732872 462.1875892 -0.48359558 C464.13650997 -0.48189671 466.08545049 -0.48704671 468.03433201 -0.49953273 C470.67295858 -0.51546236 473.31039509 -0.50701042 475.94900131 -0.49219131 C476.71499645 -0.50269937 477.48099159 -0.51320742 478.2701987 -0.5240339 C481.87648151 -0.47790527 483.65788868 -0.2775448 486.50318742 2.03076196 C486.99713557 2.68061051 487.49108372 3.33045907 488 4 C487.22011719 4.185625 486.44023438 4.37125 485.63671875 4.5625 C482.68479173 5.81060483 482.68479173 5.81060483 481.70703125 9.1875 C481.41183594 10.445625 481.11664062 11.70375 480.8125 13 C479.16734143 19.83265857 479.16734143 19.83265857 477 22 C474.4351194 22.19026759 471.97921582 22.25397623 469.41374016 22.23047829 C468.61789684 22.2310976 467.82205352 22.23171692 467.00209373 22.232355 C464.30678436 22.23197043 461.61174054 22.21716224 458.91647339 22.20254517 C456.97609235 22.19928982 455.03570968 22.19691461 453.09532654 22.1953491 C447.7410564 22.18845947 442.38689266 22.16900096 437.03266358 22.14758825 C431.26715235 22.12669851 425.50162143 22.11732547 419.73608398 22.10658264 C409.73951652 22.08636635 399.74299085 22.05878718 389.74645615 22.02626419 C375.29299195 21.97925146 360.83951701 21.94325436 346.38601543 21.90998094 C322.93847211 21.85570158 299.49096177 21.79248027 276.04345703 21.72363281 C253.26091568 21.65675907 230.47836913 21.59408443 207.69580078 21.53710938 C206.64288594 21.53447371 206.64288594 21.53447371 205.5687001 21.5317848 C198.51966156 21.51414426 191.47062282 21.49658924 184.42158392 21.47909689 C170.06117554 21.44345926 155.70076862 21.40725069 141.34036255 21.37069702 C140.02139103 21.36734008 138.70241952 21.36398313 137.34347917 21.36052446 C93.89562742 21.24969378 50.4478109 21.12571648 7 21 C7.20625 21.61875 7.4125 22.2375 7.625 22.875 C7.74875 23.57625 7.8725 24.2775 8 25 C7.34 25.66 6.68 26.32 6 27 C4.9986012 23.99580359 4.48578543 21.12290635 4 18 C3.67 18.99 3.34 19.98 3 21 C2.01 21 1.02 21 0 21 C0.14042877 19.35369672 0.28749329 17.70795821 0.4375 16.0625 C0.51871094 15.14597656 0.59992187 14.22945313 0.68359375 13.28515625 C1 11 1 11 2 10 C1.74754803 8.30247813 1.42354225 6.61528455 1.0625 4.9375 C0.86785156 4.01839844 0.67320312 3.09929687 0.47265625 2.15234375 C0.31667969 1.44207031 0.16070313 0.73179687 0 0 Z " fill="#E34932" transform="translate(607,401)"/>
<path d="M0 0 C155.1 0 310.2 0 470 0 C469 6 469 6 465 15 C313.2 15 161.4 15 5 15 C1 6 1 6 0 0 Z " fill="#FCFBFA" transform="translate(614,422)"/>
<path d="M0 0 C144.54 0 289.08 0 438 0 C434.12439717 11.62680848 434.12439717 11.62680848 430 15 C424.45842935 16.38881208 418.98838236 16.22473167 413.30482483 16.15631104 C411.56393964 16.16811341 409.82307733 16.18383261 408.08225912 16.20313239 C403.2973623 16.24463647 398.51403393 16.22986477 393.72907794 16.20584011 C388.56935547 16.18961561 383.40995238 16.22506534 378.25032043 16.2538147 C368.14197058 16.30158911 358.03419365 16.30031448 347.92577107 16.28115097 C339.71129172 16.26630313 331.49697896 16.2682513 323.28249931 16.28221893 C322.11413087 16.28417548 320.94576243 16.28613202 319.74198888 16.28814785 C317.36858415 16.29216991 314.99517948 16.29621924 312.62177484 16.30029556 C290.35624056 16.33632046 268.09102835 16.31557161 245.82551729 16.27652404 C226.71555296 16.24449007 207.60623044 16.26551722 188.49633789 16.32421875 C166.31296106 16.39235956 144.12998706 16.42434042 121.94650453 16.40100646 C119.5814419 16.39864277 117.2163792 16.39633918 114.85131645 16.39409637 C113.68761683 16.39298932 112.52391721 16.39188226 111.32495396 16.39074166 C103.11964381 16.38554606 94.9146418 16.40663446 86.70939827 16.43811798 C76.71053964 16.47592479 66.7125945 16.47504301 56.71377856 16.42413393 C51.61066812 16.39917732 46.50916002 16.39195711 41.40611267 16.43238449 C36.73506365 16.46890688 32.06702564 16.45474321 27.39618021 16.39997336 C25.70581694 16.38906454 24.0152112 16.39676042 22.32504571 16.42482403 C9.72128662 16.61893009 9.72128662 16.61893009 5.44780815 12.59957457 C2.72851356 8.47711277 1.19686898 4.78747593 0 0 Z " fill="#FCFCFB" transform="translate(630,459)"/>
<path d="M0 0 C1.26158432 -0.00930542 2.52316864 -0.01861084 3.82298279 -0.02819824 C5.19197715 -0.01260916 6.56096048 0.00397611 7.92993164 0.02148438 C9.34330646 0.02319692 10.75668445 0.02312833 12.1700592 0.0213623 C15.12833159 0.02301331 18.08584413 0.0416666 21.04394531 0.07324219 C24.82462908 0.11288372 28.6043169 0.11729047 32.38516903 0.10977936 C35.30299405 0.10670055 38.22059768 0.11886289 41.13836861 0.13591003 C42.53172986 0.14291262 43.92511621 0.14606791 45.3184948 0.1452179 C47.27099418 0.14702775 49.22343554 0.17074971 51.17578125 0.1953125 C52.28432968 0.20373169 53.39287811 0.21215088 54.53501892 0.2208252 C58.12735249 0.67529769 60.56109528 1.75552874 63.65258789 3.61523438 C66.17278234 8.65562327 64.96575195 16.54463821 65.00268555 22.15405273 C65.01924004 23.99793117 65.04652358 25.84174557 65.0847168 27.68530273 C65.13954454 30.34587843 65.16136768 33.00495074 65.17602539 35.66601562 C65.19869476 36.48701248 65.22136414 37.30800934 65.24472046 38.15388489 C65.22881403 42.47354935 65.0460594 44.11369933 62.28710938 47.63037109 C59.39823671 49.80686398 57.90919553 50.28497007 54.34008789 50.42773438 C53.45708008 50.47542969 52.57407227 50.523125 51.66430664 50.57226562 C51.00043945 50.58644531 50.33657227 50.600625 49.65258789 50.61523438 C49.61391602 52.35160156 49.61391602 52.35160156 49.57446289 54.12304688 C49.5181544 55.66214566 49.46080769 57.2012067 49.40258789 58.74023438 C49.3884082 59.50078125 49.37422852 60.26132812 49.35961914 61.04492188 C49.13270886 66.30924046 48.12994402 69.43986881 44.65258789 73.61523438 C40.91254473 76.10859649 38.0269718 75.87004666 33.70336914 75.81054688 C32.54444405 75.80630203 32.54444405 75.80630203 31.36210632 75.80197144 C28.89627546 75.79078316 26.43080883 75.7656814 23.96508789 75.74023438 C22.2925671 75.73020281 20.62004061 75.72107727 18.94750977 75.71289062 C14.8490623 75.69084829 10.75088683 75.656328 6.65258789 75.61523438 C6.65258789 73.30523437 6.65258789 70.99523437 6.65258789 68.61523438 C8.63258789 67.62523437 8.63258789 67.62523437 10.65258789 66.61523438 C10.03383789 66.18210937 9.41508789 65.74898438 8.77758789 65.30273438 C5.93852083 61.71214956 5.67952092 58.44078988 5.04711914 53.97851562 C4.89614613 51.66511925 4.89614613 51.66511925 3.65258789 50.61523438 C1.19980244 50.45171535 -1.24970293 50.36067477 -3.70678711 50.28710938 C-7.52907458 49.31457469 -8.91116236 47.70171803 -11.34741211 44.61523438 C-12.07016553 41.66267985 -12.04924477 38.80016274 -12.01147461 35.77148438 C-12.01625824 34.92477173 -12.02104187 34.07805908 -12.02597046 33.20568848 C-12.02936386 31.42047257 -12.02020051 29.63519406 -11.99926758 27.85009766 C-11.97249092 25.12326015 -11.99903109 22.40053818 -12.03100586 19.67382812 C-12.02770166 17.93553782 -12.0212952 16.19725008 -12.01147461 14.45898438 C-12.02159576 13.64739868 -12.03171692 12.83581299 -12.04214478 11.99963379 C-12.02638397 11.23534058 -12.01062317 10.47104736 -11.99438477 9.68359375 C-11.9904068 9.01694702 -11.98642883 8.35030029 -11.98233032 7.66345215 C-10.12851475 1.68312599 -5.78625753 -0.01073122 0 0 Z " fill="#E2DDDC" transform="translate(970.347412109375,234.384765625)"/>
<path d="M0 0 C328.35 0 656.7 0 995 0 C995 0.99 995 1.98 995 3 C666.65 3 338.3 3 0 3 C0 2.01 0 1.02 0 0 Z " fill="#191919" transform="translate(103,651)"/>
<path d="M0 0 C0 0.66 0 1.32 0 2 C-1.96875 3.7265625 -1.96875 3.7265625 -4.5 5.625 C-5.3353125 6.25664062 -6.170625 6.88828125 -7.03125 7.5390625 C-7.6809375 8.02117187 -8.330625 8.50328125 -9 9 C-8.35160156 9.59941406 -7.70320313 10.19882812 -7.03515625 10.81640625 C-5 13 -5 13 -4.4375 15.9375 C-5.21458684 20.16830614 -6.57660994 21.41499118 -10 24 C-22.08086262 30.16840655 -36.38253108 28.29214419 -49 25 C-51.4609375 23.89453125 -51.4609375 23.89453125 -53 23 C-52.505 24.98 -52.505 24.98 -52 27 C-59.26 27 -66.52 27 -74 27 C-74 25.68 -74 24.36 -74 23 C-77.96 23 -81.92 23 -86 23 C-86.66 24.32 -87.32 25.64 -88 27 C-95.59 27 -103.18 27 -111 27 C-109.25958378 23.51916757 -108.30392702 22.08686665 -105.5859375 19.57421875 C-104.90660156 18.94193359 -104.22726563 18.30964844 -103.52734375 17.65820312 C-102.81707031 17.00787109 -102.10679687 16.35753906 -101.375 15.6875 C-100.68792969 15.04876953 -100.00085938 14.41003906 -99.29296875 13.75195312 C-95.18341098 9.94694983 -91.03757349 6.1837195 -86.77270508 2.55297852 C-84.85266642 0.9231421 -84.85266642 0.9231421 -82.73828125 -1.421875 C-78.16924966 -4.0550972 -73.34727774 -3.41390253 -68.1875 -3.25 C-67.11306641 -3.23195313 -66.03863281 -3.21390625 -64.93164062 -3.1953125 C-62.28684535 -3.14829392 -59.64388411 -3.0825916 -57 -3 C-56.49187886 -0.48056604 -55.99335466 2.04016873 -55.5 4.5625 C-55.35691406 5.26697266 -55.21382813 5.97144531 -55.06640625 6.69726562 C-54.19125075 11.21890238 -53.85476595 15.39487028 -54 20 C-53.24074219 19.48308594 -52.48148437 18.96617187 -51.69921875 18.43359375 C-50.70535156 17.77488281 -49.71148437 17.11617188 -48.6875 16.4375 C-47.20830078 15.44556641 -47.20830078 15.44556641 -45.69921875 14.43359375 C-44.80847656 13.96050781 -43.91773438 13.48742187 -43 13 C-41.515 13.495 -41.515 13.495 -40 14 C-41.2375 13.1646875 -41.2375 13.1646875 -42.5 12.3125 C-45 10 -45 10 -45.625 7.5625 C-44.70274628 3.78125973 -43.03597806 2.40348263 -40 0 C-27.91054134 -6.36010651 -12.27956992 -4.86948462 0 0 Z M-21 6 C-17.36383344 7.9789756 -14.11574371 8.5251065 -10 9 C-12.39763185 6.60236815 -13.33273498 6.65719414 -16.625 6.375 C-17.85089844 6.26285156 -17.85089844 6.26285156 -19.1015625 6.1484375 C-19.72804688 6.09945313 -20.35453125 6.05046875 -21 6 Z M-75 11 C-76.485 12.98 -76.485 12.98 -78 15 C-76.68 15 -75.36 15 -74 15 C-74.33 13.68 -74.66 12.36 -75 11 Z M-31 17 C-27 18 -27 18 -27 18 Z " fill="#1C5BA3" transform="translate(341,467)"/>
<path d="M0 0 C1.26158432 -0.00930542 2.52316864 -0.01861084 3.82298279 -0.02819824 C5.19197715 -0.01260916 6.56096048 0.00397611 7.92993164 0.02148438 C9.34330646 0.02319692 10.75668445 0.02312833 12.1700592 0.0213623 C15.12833159 0.02301331 18.08584413 0.0416666 21.04394531 0.07324219 C24.82462908 0.11288372 28.6043169 0.11729047 32.38516903 0.10977936 C35.30299405 0.10670055 38.22059768 0.11886289 41.13836861 0.13591003 C42.53172986 0.14291262 43.92511621 0.14606791 45.3184948 0.1452179 C47.27099418 0.14702775 49.22343554 0.17074971 51.17578125 0.1953125 C52.28432968 0.20373169 53.39287811 0.21215088 54.53501892 0.2208252 C58.12735249 0.67529769 60.56109528 1.75552874 63.65258789 3.61523438 C66.17278234 8.65562327 64.96575195 16.54463821 65.00268555 22.15405273 C65.01924004 23.99793117 65.04652358 25.84174557 65.0847168 27.68530273 C65.13954454 30.34587843 65.16136768 33.00495074 65.17602539 35.66601562 C65.19869476 36.48701248 65.22136414 37.30800934 65.24472046 38.15388489 C65.22881403 42.47354935 65.0460594 44.11369933 62.28710938 47.63037109 C59.39823671 49.80686398 57.90919553 50.28497007 54.34008789 50.42773438 C53.45708008 50.47542969 52.57407227 50.523125 51.66430664 50.57226562 C51.00043945 50.58644531 50.33657227 50.600625 49.65258789 50.61523438 C49.61391602 52.35160156 49.61391602 52.35160156 49.57446289 54.12304688 C49.5181544 55.66214566 49.46080769 57.2012067 49.40258789 58.74023438 C49.3884082 59.50078125 49.37422852 60.26132812 49.35961914 61.04492188 C49.13270886 66.30924046 48.12994402 69.43986881 44.65258789 73.61523438 C40.91254473 76.10859649 38.0269718 75.87004666 33.70336914 75.81054688 C32.54444405 75.80630203 32.54444405 75.80630203 31.36210632 75.80197144 C28.89627546 75.79078316 26.43080883 75.7656814 23.96508789 75.74023438 C22.2925671 75.73020281 20.62004061 75.72107727 18.94750977 75.71289062 C14.8490623 75.69084829 10.75088683 75.656328 6.65258789 75.61523438 C6.65258789 73.30523437 6.65258789 70.99523437 6.65258789 68.61523438 C17.54258789 68.28523438 28.43258789 67.95523438 39.65258789 67.61523438 C39.7832887 61.25877217 39.7832887 61.25877217 39.86035156 54.90161133 C40.01573385 50.48278851 40.23905599 48.19156266 42.87524414 44.51757812 C45.83261102 42.49192739 47.36511271 41.97114681 50.90258789 41.86523438 C54.08318449 41.99966039 54.08318449 41.99966039 56.65258789 40.61523438 C56.87091778 36.21524493 56.83837935 31.80988626 56.83789062 27.4050293 C56.8400754 25.19039655 56.8582232 22.97626314 56.87719727 20.76171875 C56.88013145 19.36002775 56.88211608 17.95833438 56.88305664 16.55664062 C56.88716553 15.27474854 56.89127441 13.99285645 56.89550781 12.67211914 C56.97663778 9.50670432 56.97663778 9.50670432 54.65258789 7.61523438 C52.19972726 7.30855582 52.19972726 7.30855582 49.31665039 7.35644531 C48.20209473 7.35014099 47.08753906 7.34383667 45.93920898 7.33734131 C44.73087402 7.34138977 43.52253906 7.34543823 42.27758789 7.34960938 C41.04218262 7.34769592 39.80677734 7.34578247 38.53393555 7.34381104 C35.24667382 7.34209827 31.95960002 7.35016738 28.67236328 7.36132812 C26.65464259 7.3652304 24.63709588 7.36134267 22.61938477 7.35449219 C18.75536961 7.34217434 14.89161361 7.3436246 11.02758789 7.34960938 C9.81925293 7.34556091 8.61091797 7.34151245 7.3659668 7.33734131 C6.25141113 7.34364563 5.13685547 7.34994995 3.98852539 7.35644531 C2.51198486 7.35883209 2.51198486 7.35883209 1.00561523 7.36126709 C-1.53717713 7.3869028 -1.53717713 7.3869028 -3.34741211 9.61523438 C-3.52229465 12.05268335 -3.57918616 14.37459518 -3.54272461 16.81054688 C-3.53989471 17.51799042 -3.53706482 18.22543396 -3.53414917 18.95431519 C-3.52294348 21.21645947 -3.4978389 23.47820952 -3.47241211 25.74023438 C-3.46238278 27.27278075 -3.45325685 28.80533331 -3.44506836 30.33789062 C-3.42300297 34.09715738 -3.38847107 37.85612901 -3.34741211 41.61523438 C-2.66686768 41.66566895 -1.98632324 41.71610352 -1.28515625 41.76806641 C-0.38917725 41.84395996 0.50680176 41.91985352 1.42993164 41.99804688 C2.76012329 42.10463623 2.76012329 42.10463623 4.1171875 42.21337891 C8.51088681 42.90977073 9.88258948 44.06395436 12.65258789 47.61523438 C13.42285906 51.29082365 13.63945387 54.86547206 13.65258789 58.61523438 C16.22146958 58.25413975 17.35400166 57.98654557 19.00878906 55.92871094 C19.40042236 55.21166992 19.79205566 54.49462891 20.19555664 53.75585938 C20.62932617 52.96953125 21.0630957 52.18320312 21.51000977 51.37304688 C21.94893555 50.54546875 22.38786133 49.71789062 22.84008789 48.86523438 C23.29061523 48.053125 23.74114258 47.24101562 24.20532227 46.40429688 C26.44936303 42.27283952 27.70833791 39.33648427 28.65258789 34.61523438 C22.71258789 34.61523438 16.77258789 34.61523438 10.65258789 34.61523438 C17.31925456 27.94856771 23.98592122 21.28190104 30.65258789 14.61523438 C31.14758789 15.60523438 31.14758789 15.60523438 31.65258789 16.61523438 C31.01321289 17.52273437 30.37383789 18.43023437 29.71508789 19.36523438 C27.4399728 22.57306414 27.4399728 22.57306414 26.65258789 26.61523438 C31.27258789 26.61523438 35.89258789 26.61523438 40.65258789 26.61523438 C41.31258789 27.93523437 41.97258789 29.25523437 42.65258789 30.61523438 C41.68969727 33.22143555 41.68969727 33.22143555 39.99633789 36.15820312 C39.38532227 37.23263672 38.77430664 38.30707031 38.14477539 39.4140625 C37.48735352 40.53232422 36.82993164 41.65058594 36.15258789 42.80273438 C35.52610352 43.90166016 34.89961914 45.00058594 34.25415039 46.1328125 C24.23695685 63.5589884 24.23695685 63.5589884 19.65258789 66.61523438 C15.55909798 67.26355874 11.8953483 67.28441306 8.21508789 65.30273438 C6.1011313 61.66672904 5.63318885 58.1138673 5.04711914 53.97851562 C4.89614613 51.66511925 4.89614613 51.66511925 3.65258789 50.61523438 C1.19980244 50.45171535 -1.24970293 50.36067477 -3.70678711 50.28710938 C-7.52907458 49.31457469 -8.91116236 47.70171803 -11.34741211 44.61523438 C-12.07016553 41.66267985 -12.04924477 38.80016274 -12.01147461 35.77148438 C-12.01625824 34.92477173 -12.02104187 34.07805908 -12.02597046 33.20568848 C-12.02936386 31.42047257 -12.02020051 29.63519406 -11.99926758 27.85009766 C-11.97249092 25.12326015 -11.99903109 22.40053818 -12.03100586 19.67382812 C-12.02770166 17.93553782 -12.0212952 16.19725008 -12.01147461 14.45898438 C-12.02159576 13.64739868 -12.03171692 12.83581299 -12.04214478 11.99963379 C-12.02638397 11.23534058 -12.01062317 10.47104736 -11.99438477 9.68359375 C-11.9904068 9.01694702 -11.98642883 8.35030029 -11.98233032 7.66345215 C-10.12851475 1.68312599 -5.78625753 -0.01073122 0 0 Z " fill="#E4472A" transform="translate(970.347412109375,234.384765625)"/>
<path d="M0 0 C0.81791016 0.54140625 0.81791016 0.54140625 1.65234375 1.09375 C1.65234375 -0.22625 1.65234375 -1.54625 1.65234375 -2.90625 C5.61234375 -2.90625 9.57234375 -2.90625 13.65234375 -2.90625 C12.75117105 0.74614996 11.84089897 4.39601982 10.91796875 8.04296875 C10.00310535 11.66394001 9.1266799 15.29258702 8.26171875 18.92578125 C7.76747491 20.94023865 7.2726866 22.95456255 6.77734375 24.96875 C6.55739746 25.9182251 6.33745117 26.8677002 6.11083984 27.84594727 C4.33764413 34.93811229 1.71561711 42.82238314 -4.17407227 47.56420898 C-12.10827681 52.21981661 -21.91668973 52.48145341 -30.7109375 50.234375 C-34.02470157 49.02298575 -37.19374319 47.67070653 -40.34765625 46.09375 C-39.81696564 42.27277761 -38.85064059 40.03203597 -36.34765625 37.09375 C-33.63267082 37.71106457 -31.21006763 38.54968469 -28.66015625 39.65625 C-23.14124888 41.7464332 -17.92602033 42.13606739 -12.41015625 39.90625 C-10.02678499 37.81177222 -9.24397319 36.10863424 -8.34765625 33.09375 C-9.48203125 33.609375 -10.61640625 34.125 -11.78515625 34.65625 C-16.5366131 36.42227821 -20.46931255 36.41515664 -25.34765625 35.09375 C-30.14062363 32.65204963 -33.00794395 29.95315247 -35.34765625 25.09375 C-36.51737178 18.08739269 -35.10483891 12.06755959 -31.34765625 6.09375 C-23.10762356 -4.64958376 -11.50972584 -7.08290821 0 0 Z M-21.34765625 10.09375 C-23.90935406 14.2608954 -24.05193624 18.32631623 -23.34765625 23.09375 C-21.98390266 25.36689412 -21.98390266 25.36689412 -19.34765625 26.09375 C-14.5477271 26.63567749 -12.35046449 26.60461458 -8.03515625 24.40625 C-4.34695213 21.23267901 -2.65163281 18.91760934 -1.84765625 14.09375 C-2.15414599 10.93410098 -2.15414599 10.93410098 -4.34765625 8.21875 C-7.51031165 5.97853576 -9.4749787 5.411484 -13.3515625 5.66796875 C-16.66878078 6.37555543 -18.803863 7.91335579 -21.34765625 10.09375 Z " fill="#0D0D0D" transform="translate(552.34765625,703.90625)"/>
<path d="M0 0 C19.0294696 -1.75516909 19.0294696 -1.75516909 23.82714844 1.07958984 C26.73406922 3.89322435 28.49342466 7.28779837 30 11 C31.65 7.37 33.3 3.74 35 0 C42.26 0 49.52 0 57 0 C53.62205629 10.13383113 53.62205629 10.13383113 51.7734375 14.21875 C51.3815625 15.08757812 50.9896875 15.95640625 50.5859375 16.8515625 C50.18632812 17.72554688 49.78671875 18.59953125 49.375 19.5 C48.96765625 20.40492188 48.5603125 21.30984375 48.140625 22.2421875 C45.13955185 28.86044815 45.13955185 28.86044815 44 30 C27.04354322 32.69235923 27.04354322 32.69235923 21.22460938 28.81787109 C18.29086316 25.67999359 16.53094538 21.9721826 15 18 C13.35 21.96 11.7 25.92 10 30 C2.74 30 -4.52 30 -12 30 C-11.16666756 25.83333781 -10.19946861 22.86087793 -8.49609375 19.04296875 C-8.00302734 17.93115234 -7.50996094 16.81933594 -7.00195312 15.67382812 C-6.48568359 14.52333984 -5.96941406 13.37285156 -5.4375 12.1875 C-4.91736328 11.01767578 -4.39722656 9.84785156 -3.86132812 8.64257812 C-2.57872888 5.75967157 -1.29147717 2.87893769 0 0 Z " fill="#1B5AA2" transform="translate(169,359)"/>
<path d="M0 0 C7.1304641 0.13078935 7.1304641 0.13078935 10.53588867 2.61474609 C11.99367373 4.93530191 12.96437674 7.10336229 13.87963867 9.67724609 C14.53963867 10.33724609 15.19963867 10.99724609 15.87963867 11.67724609 C17.52963867 8.04724609 19.17963867 4.41724609 20.87963867 0.67724609 C28.13963867 0.67724609 35.39963867 0.67724609 42.87963867 0.67724609 C39.50169496 10.81107723 39.50169496 10.81107723 37.65307617 14.89599609 C37.26120117 15.76482422 36.86932617 16.63365234 36.46557617 17.52880859 C36.0659668 18.40279297 35.66635742 19.27677734 35.25463867 20.17724609 C34.84729492 21.08216797 34.43995117 21.98708984 34.02026367 22.91943359 C31.01919053 29.53769424 31.01919053 29.53769424 29.87963867 30.67724609 C12.09198519 33.02036944 12.09198519 33.02036944 6.22338867 28.73974609 C4.76560361 26.41919028 3.7949006 24.2511299 2.87963867 21.67724609 C2.21963867 21.01724609 1.55963867 20.35724609 0.87963867 19.67724609 C-0.77036133 23.30724609 -2.42036133 26.93724609 -4.12036133 30.67724609 C-11.38036133 30.67724609 -18.64036133 30.67724609 -26.12036133 30.67724609 C-25.29376665 26.54427273 -24.38315779 23.7241489 -22.65161133 19.97412109 C-22.16305664 18.91193359 -21.67450195 17.84974609 -21.17114258 16.75537109 C-20.40350586 15.10794922 -20.40350586 15.10794922 -19.62036133 13.42724609 C-19.10860352 12.31349609 -18.5968457 11.19974609 -18.06958008 10.05224609 C-13.28948008 -0.28992276 -11.20330006 0.19957598 0 0 Z " fill="#1B5AA2" transform="translate(456.120361328125,463.32275390625)"/>
<path d="M0 0 C7.13340769 0.13504224 7.13340769 0.13504224 10.49853516 2.57739258 C11.94869301 4.90141179 12.89979106 7.12523104 13.87744141 9.67504883 C15.39635012 11.4305489 15.39635012 11.4305489 16.87744141 12.67504883 C17.07080078 12.06016602 17.26416016 11.4452832 17.46337891 10.81176758 C17.72376953 10.00352539 17.98416016 9.1952832 18.25244141 8.36254883 C18.63529297 7.16178711 18.63529297 7.16178711 19.02587891 5.93676758 C19.87744141 3.67504883 19.87744141 3.67504883 21.87744141 0.67504883 C24.03222656 0.33447266 24.03222656 0.33447266 26.66650391 0.38208008 C27.60751953 0.39174805 28.54853516 0.40141602 29.51806641 0.41137695 C30.99533203 0.44908203 30.99533203 0.44908203 32.50244141 0.48754883 C33.99130859 0.50785156 33.99130859 0.50785156 35.51025391 0.52856445 C37.96652213 0.5639914 40.42171425 0.61338687 42.87744141 0.67504883 C42.23735124 4.63978645 41.00761371 7.96949022 39.37353516 11.63208008 C38.88046875 12.74389648 38.38740234 13.85571289 37.87939453 15.0012207 C37.363125 16.15170898 36.84685547 17.30219727 36.31494141 18.48754883 C35.79480469 19.65737305 35.27466797 20.82719727 34.73876953 22.0324707 C33.45617029 24.91537725 32.16891858 27.79611113 30.87744141 30.67504883 C27.33719781 30.93780479 23.79946008 31.09665212 20.25244141 31.23754883 C19.25341797 31.31295898 18.25439453 31.38836914 17.22509766 31.46606445 C14.19944256 31.55623298 11.79115608 31.51350783 8.87744141 30.67504883 C6.15096754 28.00474324 4.49521626 25.10881309 2.87744141 21.67504883 C2.54744141 21.01504883 2.21744141 20.35504883 1.87744141 19.67504883 C-1.09255859 25.12004883 -1.09255859 25.12004883 -4.12255859 30.67504883 C-11.38255859 30.67504883 -18.64255859 30.67504883 -26.12255859 30.67504883 C-24.78624908 26.66612029 -23.44655908 22.94174681 -21.77490234 19.09301758 C-21.3346875 18.07916992 -20.89447266 17.06532227 -20.44091797 16.02075195 C-19.75739258 14.45744141 -19.75739258 14.45744141 -19.06005859 12.86254883 C-18.60050781 11.80100586 -18.14095703 10.73946289 -17.66748047 9.64575195 C-13.24633642 -0.50145532 -10.87710796 0.18547722 0 0 Z " fill="#1D5BA3" transform="translate(357.12255859375,410.324951171875)"/>
<path d="M0 0 C19.77055509 -1.80835959 19.77055509 -1.80835959 25.01953125 2.44921875 C26.875 5.5 26.875 5.5 29 11 C30.98 7.37 32.96 3.74 35 0 C41.93 0 48.86 0 56 0 C55.20155453 4.79067283 54.47576722 7.60353215 52.49609375 11.8359375 C52.00302734 12.89941406 51.50996094 13.96289062 51.00195312 15.05859375 C50.48568359 16.15300781 49.96941406 17.24742187 49.4375 18.375 C48.91736328 19.49261719 48.39722656 20.61023438 47.86132812 21.76171875 C46.58071341 24.51092832 45.29343785 27.2568061 44 30 C24.81096958 31.91472991 24.81096958 31.91472991 20.27099609 28.82226562 C17.4262388 25.52867603 16.46603761 22.13940032 15 18 C13.02 21.96 11.04 25.92 9 30 C2.07 30 -4.86 30 -12 30 C-11.20155453 25.20932717 -10.47576722 22.39646785 -8.49609375 18.1640625 C-8.00302734 17.10058594 -7.50996094 16.03710938 -7.00195312 14.94140625 C-6.48568359 13.84699219 -5.96941406 12.75257813 -5.4375 11.625 C-4.91736328 10.50738281 -4.39722656 9.38976562 -3.86132812 8.23828125 C-2.58071341 5.48907168 -1.29343785 2.7431939 0 0 Z " fill="#1C5AA3" transform="translate(183,464)"/>
<path d="M0 0 C13.53 0 27.06 0 41 0 C40 8 40 8 39 10 C29.1 10 19.2 10 9 10 C8.34 13.3 7.68 16.6 7 20 C6.67 20.66 6.34 21.32 6 22 C14.58 22 23.16 22 32 22 C31 29 31 29 30 32 C21.09 32 12.18 32 3 32 C2.34 35.3 1.68 38.6 1 42 C0.67 42.99 0.34 43.98 0 45 C9.9 45 19.8 45 30 45 C29.34 48.3 28.68 51.6 28 55 C14.14 55 0.28 55 -14 55 C-12.65344845 47.59396646 -11.18813799 40.51436633 -9.1796875 33.30078125 C-8.91616486 32.3397197 -8.65264221 31.37865814 -8.38113403 30.38847351 C-7.55017439 27.36191273 -6.7127126 24.33719776 -5.875 21.3125 C-5.30555586 19.24295783 -4.73654159 17.17329733 -4.16796875 15.10351562 C-2.78439632 10.06739267 -1.39201766 5.03382534 0 0 Z " fill="#0A0A0A" transform="translate(356,688)"/>
<path d="M0 0 C0.82125371 -0.00346153 1.64250742 -0.00692307 2.48864761 -0.01048949 C5.25241096 -0.01845741 8.01565452 -0.00494909 10.77939129 0.00837994 C12.77598639 0.0070722 14.772581 0.00444636 16.76917285 0.00061244 C22.26490187 -0.00611067 27.76045624 0.00592529 33.256163 0.02094662 C39.17910253 0.0338764 45.10203184 0.02951969 51.0249815 0.0272398 C61.95916311 0.02556247 72.89328099 0.03723961 83.82744651 0.05526244 C93.92492174 0.07176465 104.02237808 0.081453 114.11986637 0.08451176 C114.78912817 0.08471798 115.45838996 0.08492419 116.14793242 0.08513666 C119.5467293 0.08615165 122.9455262 0.08705581 126.34432312 0.08791729 C150.42244139 0.09421971 174.5005299 0.1144351 198.5786314 0.14282513 C221.97120792 0.17037504 245.36377629 0.19162754 268.75636578 0.20434856 C269.47733715 0.20474314 270.19830853 0.20513772 270.94112752 0.20554426 C278.18137152 0.20949979 285.42161559 0.21332724 292.66185971 0.21706083 C307.41127293 0.22466962 322.16068563 0.23313338 336.91009808 0.24211407 C337.58826278 0.24252594 338.26642748 0.24293781 338.96514262 0.24336216 C384.2572979 0.27096746 429.54943604 0.31856581 474.84157085 0.36914349 C474.84157085 1.02914349 474.84157085 1.68914349 474.84157085 2.36914349 C476.82157085 2.86414349 476.82157085 2.86414349 478.84157085 3.36914349 C317.47157085 3.36914349 156.10157085 3.36914349 -10.15842915 3.36914349 C-9.82842915 7.98914349 -9.49842915 12.60914349 -9.15842915 17.36914349 C-9.48842915 17.36914349 -9.81842915 17.36914349 -10.15842915 17.36914349 C-10.48842915 14.06914349 -10.81842915 10.76914349 -11.15842915 7.36914349 C-12.14842915 7.03914349 -13.13842915 6.70914349 -14.15842915 6.36914349 C-13.15842915 3.36914349 -13.15842915 3.36914349 -11.10583097 1.70471495 C-7.35777883 0.00634066 -4.03406937 -0.0417356 0 0 Z " fill="#E3442C" transform="translate(615.158429145813,376.63085651397705)"/>
<path d="M0 0 C2.46946215 3.02994681 2.43335276 5.02519655 2.24609375 8.8203125 C1.16919132 13.72436047 -2.08601517 16.72629705 -6.1953125 19.3828125 C-18.80291835 26.06754698 -33.63257959 26.6908621 -47.26171875 23.1328125 C-52.35259273 21.28545522 -56.6735569 19.08407864 -59.26171875 14.1328125 C-59.26171875 9.75122785 -58.87136272 7.27258167 -56.82421875 3.4453125 C-43.33056499 -8.73188724 -14.48731129 -11.96016373 0 0 Z M-37.26171875 8.1328125 C-36.76415783 10.88922666 -36.76415783 10.88922666 -35.26171875 13.1328125 C-33.49424146 13.25843485 -31.72111583 13.30857808 -29.94921875 13.3203125 C-28.98371094 13.33449219 -28.01820313 13.34867187 -27.0234375 13.36328125 C-24.21625015 13.12901809 -22.60342074 12.66703105 -20.26171875 11.1328125 C-19.2755474 9.18996082 -19.2755474 9.18996082 -19.26171875 7.1328125 C-21.94297466 4.45155659 -23.40296791 4.83400596 -27.13671875 4.8203125 C-28.71066406 4.79517578 -28.71066406 4.79517578 -30.31640625 4.76953125 C-33.54870289 5.16820975 -34.89167133 5.96313141 -37.26171875 8.1328125 Z " fill="#1E5CA4" transform="translate(428.26171875,469.8671875)"/>
<path d="M0 0 C3.63 0 7.26 0 11 0 C10.29940584 7.53803847 8.27417947 14.46426363 6.08398438 21.69140625 C4.16077629 28.36908276 1.98301833 36.14939862 5.375 42.625 C9.55135558 44.81261483 13.39963266 44.80069685 18 44 C24.62495364 40.44215453 25.78204629 34.86567045 28 28 C29.30904372 23.49924668 30.50908751 18.97400298 31.6875 14.4375 C32.29371428 12.12321026 32.90169409 9.80938203 33.51171875 7.49609375 C33.77428467 6.48732178 34.03685059 5.4785498 34.30737305 4.43920898 C35 2 35 2 36 0 C39.63 0 43.26 0 47 0 C46.12659848 6.77263577 44.52147466 13.26285235 42.78125 19.85107422 C42.25390389 21.86012718 41.74404699 23.87312081 41.234375 25.88671875 C38.32358495 37.10131178 34.82399474 46.97068718 24.5 53.25 C17.62948835 56.68525582 10.64748175 56.97271925 3.3125 54.8125 C-2.01381148 52.87482462 -4.89049175 49.66426237 -8 45 C-12.16973136 31.13771428 -4.28523256 13.1731223 0 0 Z " fill="#0F0F0F" transform="translate(647,688)"/>
<path d="M0 0 C1.875 1.9375 1.875 1.9375 1.875 3.9375 C-1.425 4.5975 -4.725 5.2575 -8.125 5.9375 C-5.485 6.2675 -2.845 6.5975 -0.125 6.9375 C-1.08970969 12.4870671 -2.66935276 17.42159736 -6.125 21.9375 C-9.36048055 23.7008369 -12.50514596 24.37683088 -16.125 24.9375 C-17.52878906 25.20626953 -17.52878906 25.20626953 -18.9609375 25.48046875 C-30.10850588 27.09067307 -42.8443367 27.07472412 -52.6875 20.9375 C-55.88282311 18.31569642 -57.03125672 16.76556564 -57.5 12.625 C-57.03990558 8.10073817 -56.15122192 6.33277338 -53.125 2.9375 C-39.26466329 -7.21332751 -14.64935663 -9.66857538 0 0 Z M-34.125 7.9375 C-35.52966953 9.98843145 -35.52966953 9.98843145 -36.125 11.9375 C-34.40273504 15.18599977 -34.40273504 15.18599977 -31.125 15.9375 C-28.79200175 15.97704234 -26.45791811 15.98151732 -24.125 15.9375 C-24.125 15.6075 -24.125 15.2775 -24.125 14.9375 C-26.105 14.9375 -28.085 14.9375 -30.125 14.9375 C-29.135 12.6275 -28.145 10.3175 -27.125 7.9375 C-22.67 7.4425 -22.67 7.4425 -18.125 6.9375 C-23.61591525 3.27688983 -28.77874008 4.45621447 -34.125 7.9375 Z " fill="#1D5BA3" transform="translate(511.125,416.0625)"/>
<path d="M0 0 C4.55320682 -0.04979112 9.10625181 -0.08590298 13.65966797 -0.10986328 C15.20559453 -0.11986197 16.75150246 -0.13346538 18.29736328 -0.15087891 C20.53162255 -0.17539951 22.76562975 -0.18654451 25 -0.1953125 C25.68054443 -0.20563507 26.36108887 -0.21595764 27.06225586 -0.22659302 C33.65731263 -0.22810232 40.75358803 0.70748111 46 5 C47.32354055 8.1434088 47.21741275 9.46286262 45.9375 12.625 C43.58146759 15.51303973 41.40427853 16.54102349 38 18 C37.21625 18.391875 36.4325 18.78375 35.625 19.1875 C35.08875 19.455625 34.5525 19.72375 34 20 C34.54140625 20.70576172 34.54140625 20.70576172 35.09375 21.42578125 C35.5578125 22.04839844 36.021875 22.67101562 36.5 23.3125 C36.9640625 23.92738281 37.428125 24.54226563 37.90625 25.17578125 C39 27 39 27 39 30 C31.74 30 24.48 30 17 30 C14 24 14 24 14 22 C13.34 22 12.68 22 12 22 C11.87625 22.763125 11.7525 23.52625 11.625 24.3125 C11 27 11 27 9 30 C6.84521484 30.34057617 6.84521484 30.34057617 4.2109375 30.29296875 C3.26992188 30.28330078 2.32890625 30.27363281 1.359375 30.26367188 C-0.11789062 30.2259668 -0.11789062 30.2259668 -1.625 30.1875 C-3.11386719 30.16719727 -3.11386719 30.16719727 -4.6328125 30.14648438 C-7.08908072 30.11105743 -9.54427285 30.06166196 -12 30 C-11.35990983 26.03526237 -10.1301723 22.7055586 -8.49609375 19.04296875 C-8.00302734 17.93115234 -7.50996094 16.81933594 -7.00195312 15.67382812 C-6.48568359 14.52333984 -5.96941406 13.37285156 -5.4375 12.1875 C-4.91736328 11.01767578 -4.39722656 9.84785156 -3.86132812 8.64257812 C-2.57872888 5.75967157 -1.29147717 2.87893769 0 0 Z M18 9 C17.67 9.99 17.34 10.98 17 12 C21.14093698 12.20970559 21.14093698 12.20970559 25 11 C25 10.34 25 9.68 25 9 C22.69 9 20.38 9 18 9 Z " fill="#1C5BA3" transform="translate(363,359)"/>
<path d="M0 0 C6.93 0 13.86 0 21 0 C20.14360081 5.13839516 19.13600254 8.29088831 16.9375 12.875 C16.38964844 14.02742188 15.84179688 15.17984375 15.27734375 16.3671875 C14.85582031 17.23601562 14.43429688 18.10484375 14 19 C16.31 19 18.62 19 21 19 C21.26554687 18.15179688 21.53109375 17.30359375 21.8046875 16.4296875 C23.78086472 10.75947966 26.4497341 5.43317518 29 0 C36.26 0 43.52 0 51 0 C43.68903993 21.9328802 43.68903993 21.9328802 35 27 C25.09439648 31.73664533 11.83509471 32.59197242 1.4140625 29.14453125 C-2.26062736 27.59259913 -5.49134357 26.20204283 -8 23 C-8.2900586 14.15321267 -4.07113847 7.62413204 0 0 Z " fill="#1B5AA2" transform="translate(111,359)"/>
<path d="M0 0 C1.51400391 0.01740234 1.51400391 0.01740234 3.05859375 0.03515625 C4.07050781 0.04417969 5.08242187 0.05320312 6.125 0.0625 C7.29869141 0.07990234 7.29869141 0.07990234 8.49609375 0.09765625 C7.33054568 6.14858665 6.04266279 12.13231851 4.49609375 18.09765625 C5.13546875 17.60265625 5.77484375 17.10765625 6.43359375 16.59765625 C10.56499249 14.57411401 13.9727944 14.38764983 18.49609375 15.09765625 C22.17079259 16.86695569 24.02288093 18.4565292 26.43359375 21.72265625 C29.03157762 29.97507562 25.64567439 39.1544642 23.43359375 47.22265625 C23.15193359 48.27453125 22.87027344 49.32640625 22.58007812 50.41015625 C21.89236013 52.97452844 21.19520998 55.53636804 20.49609375 58.09765625 C16.86609375 58.09765625 13.23609375 58.09765625 9.49609375 58.09765625 C9.99533127 50.98352154 11.66639482 44.46776326 13.65625 37.6484375 C14.45828539 34.25750648 14.89627211 31.5574261 14.49609375 28.09765625 C11.62032348 25.77985926 11.62032348 25.77985926 8.05859375 26.09765625 C4.34435255 27.14025027 3.46502671 27.80708164 1.49780273 30.98925781 C-0.75891918 35.73920918 -1.92106279 40.90441889 -3.25390625 45.97265625 C-3.56972656 47.13796875 -3.88554687 48.30328125 -4.2109375 49.50390625 C-4.9850709 52.36585396 -5.74582181 55.23141565 -6.50390625 58.09765625 C-10.13390625 58.09765625 -13.76390625 58.09765625 -17.50390625 58.09765625 C-16.91233358 51.05322342 -15.47587216 44.55993803 -13.59765625 37.75390625 C-13.31289429 36.70360229 -13.02813232 35.65329834 -12.73474121 34.57116699 C-12.13607652 32.36851728 -11.53417868 30.16674399 -10.92919922 27.96582031 C-9.99965016 24.58216364 -9.08108791 21.19566359 -8.1640625 17.80859375 C-7.58006535 15.66519058 -6.99545211 13.52195515 -6.41015625 11.37890625 C-5.99606506 9.8540863 -5.99606506 9.8540863 -5.5736084 8.29846191 C-5.31664185 7.36659058 -5.05967529 6.43471924 -4.79492188 5.47460938 C-4.56921509 4.65126099 -4.3435083 3.8279126 -4.11096191 2.97961426 C-3.20285782 0.16436374 -3.04861241 0.11890064 0 0 Z " fill="#0F0F0F" transform="translate(244.50390625,684.90234375)"/>
<path d="M0 0 C1.71213941 5.51606654 2.75611162 10.98209521 3.625 16.6875 C3.82609375 17.94916992 3.82609375 17.94916992 4.03125 19.23632812 C4.60255159 22.91189601 5 26.26105749 5 30 C-1.93 30 -8.86 30 -16 30 C-16 28.68 -16 27.36 -16 26 C-17.93833996 26.08715017 -19.8757429 26.19532964 -21.8125 26.3125 C-23.43091797 26.39951172 -23.43091797 26.39951172 -25.08203125 26.48828125 C-28.00432406 26.68984824 -28.00432406 26.68984824 -29.34960938 28.51367188 C-31.67296754 30.60606899 -33.23823017 30.34411773 -36.32421875 30.29296875 C-37.35224609 30.28330078 -38.38027344 30.27363281 -39.43945312 30.26367188 C-41.04723633 30.2259668 -41.04723633 30.2259668 -42.6875 30.1875 C-43.77095703 30.17396484 -44.85441406 30.16042969 -45.97070312 30.14648438 C-48.64763405 30.11110643 -51.32356838 30.06174189 -54 30 C-52.33211578 26.42309728 -50.49640933 24.41539355 -47.5 21.8125 C-46.60410156 21.02617187 -45.70820313 20.23984375 -44.78515625 19.4296875 C-43.86605469 18.62789063 -42.94695312 17.82609375 -42 17 C-40.30980176 15.48216596 -38.6222292 13.96140216 -36.9375 12.4375 C-36.09445312 11.7053125 -35.25140625 10.973125 -34.3828125 10.21875 C-31.97087894 8.09151532 -31.97087894 8.09151532 -30.1796875 5.65625 C-22.74205549 -3.18177298 -10.50861446 -0.67772287 0 0 Z M-17 13 C-18.03013277 14.64821244 -19.03114628 16.31503702 -20 18 C-18.68 18 -17.36 18 -16 18 C-16 16.35 -16 14.7 -16 13 C-16.33 13 -16.66 13 -17 13 Z " fill="#1757A1" transform="translate(543,464)"/>
<path d="M0 0 C1.60488281 0.03383789 1.60488281 0.03383789 3.2421875 0.06835938 C5.87124407 0.12704367 8.49738582 0.2090882 11.125 0.3125 C11.79976789 4.1861343 12.46337032 8.06160183 13.125 11.9375 C13.31578125 13.03191406 13.5065625 14.12632812 13.703125 15.25390625 C13.88359375 16.31738281 14.0640625 17.38085938 14.25 18.4765625 C14.50136719 19.93763428 14.50136719 19.93763428 14.7578125 21.42822266 C15.125 24.3125 15.125 24.3125 15.125 30.3125 C8.195 30.3125 1.265 30.3125 -5.875 30.3125 C-5.875 28.9925 -5.875 27.6725 -5.875 26.3125 C-7.64674819 26.39973378 -9.41747377 26.50791655 -11.1875 26.625 C-12.17363281 26.68300781 -13.15976562 26.74101562 -14.17578125 26.80078125 C-16.90260475 27.03187505 -16.90260475 27.03187505 -18.2109375 28.82617188 C-20.54632851 30.91212558 -22.10744779 30.65671357 -25.19921875 30.60546875 C-26.22724609 30.59580078 -27.25527344 30.58613281 -28.31445312 30.57617188 C-29.92223633 30.5384668 -29.92223633 30.5384668 -31.5625 30.5 C-32.64595703 30.48646484 -33.72941406 30.47292969 -34.84570312 30.45898438 C-37.52263405 30.42360643 -40.19856838 30.37424189 -42.875 30.3125 C-40.99962017 26.1847934 -38.21307121 23.60451821 -34.875 20.625 C-34.29484131 20.09898193 -33.71468262 19.57296387 -33.11694336 19.03100586 C-31.93566345 17.96137873 -30.75199635 16.89438188 -29.56591797 15.83007812 C-28.03983322 14.46043579 -26.52139514 13.08228497 -25.00390625 11.703125 C-22.63950253 9.55824735 -20.27320347 7.41952193 -17.875 5.3125 C-17.03582031 4.41015625 -16.19664062 3.5078125 -15.33203125 2.578125 C-10.90945093 -1.08686091 -5.43799441 -0.21765372 0 0 Z M-6.875 14.3125 C-8.36 16.2925 -8.36 16.2925 -9.875 18.3125 C-8.555 18.3125 -7.235 18.3125 -5.875 18.3125 C-6.205 16.9925 -6.535 15.6725 -6.875 14.3125 Z " fill="#1C5BA3" transform="translate(548.875,410.6875)"/>
<path d="M0 0 C1.54010742 0.02707031 1.54010742 0.02707031 3.11132812 0.0546875 C5.63767885 0.10168937 8.16210469 0.16737728 10.6875 0.25 C12.24836914 5.40086815 13.38910549 10.51240398 14.3125 15.8125 C14.51359375 16.90594727 14.51359375 16.90594727 14.71875 18.02148438 C14.84507812 18.73755859 14.97140625 19.45363281 15.1015625 20.19140625 C15.2145166 20.82763916 15.3274707 21.46387207 15.44384766 22.11938477 C15.75191188 24.81324896 15.6875 27.53857826 15.6875 30.25 C8.7575 30.25 1.8275 30.25 -5.3125 30.25 C-5.3125 28.93 -5.3125 27.61 -5.3125 26.25 C-7.27167659 26.3368748 -9.22991871 26.44504512 -11.1875 26.5625 C-12.27804687 26.62050781 -13.36859375 26.67851562 -14.4921875 26.73828125 C-15.42289062 26.90714844 -16.35359375 27.07601563 -17.3125 27.25 C-17.9725 28.24 -18.6325 29.23 -19.3125 30.25 C-21.65087891 30.59057617 -21.65087891 30.59057617 -24.5390625 30.54296875 C-25.5703125 30.53330078 -26.6015625 30.52363281 -27.6640625 30.51367188 C-28.74429687 30.48853516 -29.82453125 30.46339844 -30.9375 30.4375 C-32.02546875 30.42396484 -33.1134375 30.41042969 -34.234375 30.39648438 C-36.92757409 30.36104754 -39.61979374 30.31164331 -42.3125 30.25 C-40.93897072 27.13163667 -39.39411027 25.13134572 -36.8984375 22.82421875 C-36.21910156 22.19193359 -35.53976562 21.55964844 -34.83984375 20.90820312 C-34.12957031 20.25787109 -33.41929687 19.60753906 -32.6875 18.9375 C-32.00042969 18.29876953 -31.31335938 17.66003906 -30.60546875 17.00195312 C-26.49624335 13.19725756 -22.34992914 9.43545245 -18.0871582 5.80297852 C-16.16441089 4.1693545 -16.16441089 4.1693545 -14.01953125 1.828125 C-9.5884692 -0.75506269 -5.01832375 -0.16695639 0 0 Z M-6.3125 14.25 C-7.7975 16.23 -7.7975 16.23 -9.3125 18.25 C-7.9925 18.25 -6.6725 18.25 -5.3125 18.25 C-5.6425 16.93 -5.9725 15.61 -6.3125 14.25 Z " fill="#1858A1" transform="translate(433.3125,410.75)"/>
<path d="M0 0 C12.87 0 25.74 0 39 0 C38 6 38 6 36.125 7.8125 C33.06237077 10.96520656 31.80925574 14.70413778 31 19 C31.22300781 19.6084375 31.44601562 20.216875 31.67578125 20.84375 C32 23 32 23 28 30 C14.8 30 1.6 30 -12 30 C-11.20155453 25.20932717 -10.47576722 22.39646785 -8.49609375 18.1640625 C-8.05193115 17.2045166 -7.60776855 16.2449707 -7.15014648 15.25634766 C-6.58497314 14.05800293 -6.0197998 12.8596582 -5.4375 11.625 C-3.643125 7.78875 -1.84875 3.9525 0 0 Z " fill="#1858A1" transform="translate(316,359)"/>
<path d="M0 0 C12.87 0 25.74 0 39 0 C38.12495039 4.37524803 37.45180005 6.46940792 35 10 C34.34 10.33 33.68 10.66 33 11 C32.64080332 12.66128463 32.31088368 14.32900023 32 16 C31.62875 16.680625 31.2575 17.36125 30.875 18.0625 C29.76390284 19.95796655 29.76390284 19.95796655 30.5625 21.875 C31 24 31 24 28 30 C14.47 30 0.94 30 -13 30 C-11.61135903 25.8340771 -10.22363054 22.11157302 -8.3984375 18.1640625 C-7.95677246 17.2045166 -7.51510742 16.2449707 -7.06005859 15.25634766 C-6.50398926 14.05800293 -5.94791992 12.8596582 -5.375 11.625 C-3.60125 7.78875 -1.8275 3.9525 0 0 Z " fill="#1C5AA3" transform="translate(297,411)"/>
<path d="M0 0 C0.495 1.485 0.495 1.485 1 3 C-5.40717489 8.87892377 -5.40717489 8.87892377 -9.3125 9.17578125 C-11.5 8.875 -11.5 8.875 -15 8 C-14.38511719 8.17015625 -13.77023437 8.3403125 -13.13671875 8.515625 C-6.62284793 10.46874735 -6.62284793 10.46874735 -3.875 12.8125 C-2.60166957 15.99582607 -2.92149134 17.76447401 -4 21 C-8.79678036 26.24647852 -16.06500514 28.07859187 -22.98046875 28.43359375 C-24.71600144 28.45601964 -26.4519295 28.45677876 -28.1875 28.4375 C-29.55201294 28.43266602 -29.55201294 28.43266602 -30.9440918 28.42773438 C-38.7937847 28.26704182 -45.62711493 26.77567438 -53 24 C-53 23.01 -53 22.02 -53 21 C-50.953125 19.140625 -50.953125 19.140625 -48.25 17.25 C-47.36828125 16.61578125 -46.4865625 15.9815625 -45.578125 15.328125 C-43 14 -43 14 -40.671875 14.296875 C-40.12015625 14.52890625 -39.5684375 14.7609375 -39 15 C-39.639375 14.5875 -40.27875 14.175 -40.9375 13.75 C-43 12 -43 12 -43.875 10.125 C-44.05348991 7.09067148 -43.57522689 5.62537815 -42 3 C-30.44415307 -5.42613838 -12.929649 -4.87117009 0 0 Z " fill="#205DA4" transform="translate(458,361)"/>
<path d="M0 0 C3.7383697 2.1674992 5.75483721 4.4102549 7.625 8.375 C9.15978635 14.6050957 8.46423595 17.93767416 6.625 24.375 C-2.945 24.705 -12.515 25.035 -22.375 25.375 C-20.60648964 28.55574165 -20.60648964 28.55574165 -18.375 31.375 C-16.77451798 31.50035652 -15.16784072 31.55074787 -13.5625 31.5625 C-12.68980469 31.57667969 -11.81710937 31.59085938 -10.91796875 31.60546875 C-8.23923143 31.36269532 -6.72141923 30.61953683 -4.375 29.375 C-3.385 29.375 -2.395 29.375 -1.375 29.375 C2.625 33.60357143 2.625 33.60357143 2.625 37.375 C-4.94886804 41.4156492 -11.76031968 43.72772074 -20.45703125 41.94921875 C-25.93715488 40.24126435 -29.24364455 37.14246159 -32.375 32.375 C-34.61836196 25.64491413 -34.2908963 18.43528905 -31.3125 12 C-24.95442647 0.8420287 -12.36373134 -5.50266628 0 0 Z M-17.375 10.375 C-20.10699119 12.9920482 -20.10699119 12.9920482 -21.375 16.375 C-15.105 16.375 -8.835 16.375 -2.375 16.375 C-2.74184506 10.67518119 -2.74184506 10.67518119 -5.1875 8.5 C-9.86488605 6.09448717 -13.21605185 7.86230216 -17.375 10.375 Z " fill="#111111" transform="translate(832.375,701.625)"/>
<path d="M0 0 C4.12593192 2.87855716 7.06537651 6.00862953 8.6875 10.875 C8.85546875 12.9609375 8.85546875 12.9609375 8.875 15.25 C8.88917969 16.00023437 8.90335937 16.75046875 8.91796875 17.5234375 C8.6875 19.875 8.6875 19.875 6.6875 24.875 C-2.8825 24.875 -12.4525 24.875 -22.3125 24.875 C-20.14583333 30.70833333 -20.14583333 30.70833333 -17.3125 31.875 C-15.23685324 32.07258231 -15.23685324 32.07258231 -12.9375 32.0625 C-12.16664063 32.07667969 -11.39578125 32.09085938 -10.6015625 32.10546875 C-8.0854358 31.85213859 -6.52412011 31.05359161 -4.3125 29.875 C-1.43179232 30.04958834 -0.54381315 30.62716448 1.4375 32.75 C2.6875 34.875 2.6875 34.875 2.6875 37.875 C1.44014433 38.5259259 0.18948168 39.17051669 -1.0625 39.8125 C-2.10664063 40.35197266 -2.10664063 40.35197266 -3.171875 40.90234375 C-9.32240916 43.69702077 -15.70801217 43.74316261 -22.0625 41.625 C-27.72604788 38.57539729 -30.82794403 36.16525481 -32.8046875 30.0078125 C-34.61239411 22.41544475 -32.70895727 16.69150106 -29.3125 9.875 C-26.15788555 4.80508392 -21.07606282 1.08417681 -15.3671875 -0.75 C-10.13231149 -1.70541463 -5.04555497 -1.71358471 0 0 Z M-17.3125 10.875 C-19.2925 13.845 -19.2925 13.845 -21.3125 16.875 C-15.0425 16.875 -8.7725 16.875 -2.3125 16.875 C-2.44366518 10.22563833 -2.44366518 10.22563833 -5.125 8.4375 C-10.09189348 7.16029882 -13.1073113 8.24675706 -17.3125 10.875 Z " fill="#111111" transform="translate(308.3125,701.125)"/>
<path d="M0 0 C4.12257568 3.00332437 5.50256126 6.26580701 6.6015625 11.1328125 C7.20955508 15.66333783 5.95196196 18.35621465 4.7265625 23.2578125 C-4.8434375 23.2578125 -14.4134375 23.2578125 -24.2734375 23.2578125 C-22.73301002 28.06085285 -22.73301002 28.06085285 -20.2734375 30.2578125 C-17.97179184 30.57729421 -17.97179184 30.57729421 -15.3984375 30.5078125 C-14.53476562 30.51296875 -13.67109375 30.518125 -12.78125 30.5234375 C-10.14573604 30.24428649 -8.59112306 29.47968857 -6.2734375 28.2578125 C-5.2834375 28.2578125 -4.2934375 28.2578125 -3.2734375 28.2578125 C0.7265625 32.48638393 0.7265625 32.48638393 0.7265625 36.2578125 C-6.84730554 40.2984617 -13.65875718 42.61053324 -22.35546875 40.83203125 C-27.83559238 39.12407685 -31.14208205 36.02527409 -34.2734375 31.2578125 C-36.51679946 24.52772663 -36.1893338 17.31810155 -33.2109375 10.8828125 C-29.48876646 4.36901317 -24.55102156 0.04397377 -17.375 -2.26953125 C-11.0177922 -3.69931219 -5.70305622 -3.24915155 0 0 Z M-19.2734375 9.2578125 C-22.00542869 11.8748607 -22.00542869 11.8748607 -23.2734375 15.2578125 C-17.0034375 15.2578125 -10.7334375 15.2578125 -4.2734375 15.2578125 C-4.64028256 9.55799369 -4.64028256 9.55799369 -7.0859375 7.3828125 C-11.76332355 4.97729967 -15.11448935 6.74511466 -19.2734375 9.2578125 Z " fill="#101010" transform="translate(475.2734375,702.7421875)"/>
<path d="M0 0 C1.81242052 -0.02687279 3.62495233 -0.04633715 5.4375 -0.0625 C6.44683594 -0.07410156 7.45617187 -0.08570313 8.49609375 -0.09765625 C11 0 11 0 12 1 C12.29849 2.84846443 12.53892822 4.70637897 12.75390625 6.56640625 C12.95209961 8.2534668 12.95209961 8.2534668 13.15429688 9.97460938 C13.28900391 11.15861328 13.42371094 12.34261719 13.5625 13.5625 C13.70107422 14.75037109 13.83964844 15.93824219 13.98242188 17.16210938 C14.32547648 20.10764722 14.66448547 23.05359533 15 26 C15.44915771 25.2479126 15.89831543 24.4958252 16.36108398 23.72094727 C18.02413403 20.93785315 19.68849556 18.15554904 21.35375977 15.3737793 C22.07499252 14.16836686 22.79569764 12.96263857 23.51586914 11.7565918 C24.54956365 10.02570484 25.58529794 8.29603657 26.62109375 6.56640625 C27.2442749 5.52427979 27.86745605 4.48215332 28.50952148 3.40844727 C30 1 30 1 31 0 C33.01964199 -0.07244053 35.04167124 -0.08377188 37.0625 -0.0625 C38.71958984 -0.04896484 38.71958984 -0.04896484 40.41015625 -0.03515625 C41.26480469 -0.02355469 42.11945312 -0.01195312 43 0 C41.70702027 3.46797138 40.19770442 6.48552807 38.19921875 9.59765625 C37.64049072 10.47228516 37.0817627 11.34691406 36.50610352 12.24804688 C35.90596436 13.17681641 35.3058252 14.10558594 34.6875 15.0625 C34.06738037 16.02607422 33.44726074 16.98964844 32.80834961 17.98242188 C31.5159714 19.98940151 30.22208693 21.99541193 28.92675781 24.00048828 C27.07506187 26.8831462 25.24894428 29.78038426 23.4296875 32.68359375 C22.30754655 34.45589057 21.1851613 36.22803275 20.0625 38 C19.55614014 38.81734619 19.04978027 39.63469238 18.52807617 40.47680664 C14.98173862 46.02509959 11.00119165 50.99940418 5 54 C3.04450744 54.12257461 1.08429382 54.17552388 -0.875 54.1875 C-1.92429687 54.20167969 -2.97359375 54.21585938 -4.0546875 54.23046875 C-6.93547071 54.00504937 -8.56240208 53.48964317 -11 52 C-10.41945119 48.08129554 -8.94332111 45.64144202 -6 43 C-4.0625 43.01171875 -4.0625 43.01171875 -1.9375 43.375 C1.79044548 44.41828648 1.79044548 44.41828648 3.7644043 42.84814453 C5.44579339 40.33320372 5.14043665 39.02420653 4.70703125 36.0546875 C4.50460815 34.57355469 4.50460815 34.57355469 4.2980957 33.0625 C4.13784912 32.010625 3.97760254 30.95875 3.8125 29.875 C3.50982633 27.70581146 3.20774716 25.53653988 2.90625 23.3671875 C2.7515625 22.29307617 2.596875 21.21896484 2.4375 20.11230469 C1.82419388 15.74934354 1.31038565 11.3773839 0.8125 7 C0.65255945 5.62497489 0.49242746 4.24997203 0.33203125 2.875 C0.22246094 1.92625 0.11289062 0.9775 0 0 Z " fill="#0F0F0F" transform="translate(571,701)"/>
<path d="M0 0 C3.63 0 7.26 0 11 0 C11.20496094 1.55332031 11.40992188 3.10664062 11.62109375 4.70703125 C11.89307589 6.74220799 12.16521971 8.77736313 12.4375 10.8125 C12.57220703 11.83666016 12.70691406 12.86082031 12.84570312 13.91601562 C13.04389648 15.39038086 13.04389648 15.39038086 13.24609375 16.89453125 C13.36654053 17.80050049 13.4869873 18.70646973 13.61108398 19.63989258 C13.95962872 22.1418344 13.95962872 22.1418344 15 25 C15.5873291 23.86401367 15.5873291 23.86401367 16.18652344 22.70507812 C17.67122815 19.88821279 19.19546882 17.09797546 20.74951172 14.31884766 C21.41157549 13.11524222 22.05745234 11.90257697 22.68603516 10.68115234 C24.74484462 6.69688443 26.78292495 3.14628366 30 0 C34.19491862 -1.02627978 37.77942422 -0.79433672 42 0 C40.75617412 3.27627964 39.36915188 6.26208087 37.56640625 9.265625 C37.08768066 10.06516602 36.60895508 10.86470703 36.11572266 11.68847656 C35.60315918 12.5337793 35.0905957 13.37908203 34.5625 14.25 C33.76658447 15.56822754 33.76658447 15.56822754 32.95458984 16.91308594 C29.41827603 22.73945405 25.81520269 28.51987963 22.125 34.25 C21.69775635 34.91547852 21.2705127 35.58095703 20.83032227 36.26660156 C10.57147945 52.03353456 10.57147945 52.03353456 4 54 C-1.42975776 54.60159248 -6.18631902 54.81831439 -11 52 C-10.35455571 48.51460083 -8.89865603 45.97180943 -7 43 C-5.01432292 43.32552083 -3.02864583 43.65104167 -1.04296875 43.9765625 C1.31755824 44.19577848 1.31755824 44.19577848 4 42 C3.54603134 32.68581546 2.45876474 23.58142526 1.01635742 14.37426758 C0.27447298 9.51467245 -0.15384004 4.91619251 0 0 Z " fill="#0E0E0E" transform="translate(968,701)"/>
<path d="M0 0 C3.47914941 -0.02887814 6.95826831 -0.04675687 10.4375 -0.0625 C11.92733398 -0.07506836 11.92733398 -0.07506836 13.44726562 -0.08789062 C14.39150391 -0.09111328 15.33574219 -0.09433594 16.30859375 -0.09765625 C17.62041626 -0.10551147 17.62041626 -0.10551147 18.95874023 -0.11352539 C21 0 21 0 22 1 C22.3931648 2.67884238 22.74085452 4.36850045 23.0625 6.0625 C23.23910156 6.98160156 23.41570312 7.90070313 23.59765625 8.84765625 C23.79681641 9.91306641 23.79681641 9.91306641 24 11 C24.52722656 10.2059375 25.05445313 9.411875 25.59765625 8.59375 C31.99557785 0.56339516 31.99557785 0.56339516 37.77832031 -0.52099609 C44.53037347 -0.98121707 51.26702999 -0.60684149 58 0 C56.11701965 4.17781069 53.29360078 6.56951265 49.8125 9.4375 C48.55421712 10.49423183 47.29642251 11.55154527 46.0390625 12.609375 C45.38196289 13.15916016 44.72486328 13.70894531 44.04785156 14.27539062 C40.56319923 17.21000962 37.12660967 20.19977607 33.6875 23.1875 C32.70970581 24.03429321 32.70970581 24.03429321 31.7121582 24.89819336 C28.79455083 27.38208056 28.79455083 27.38208056 26 30 C24.58429877 30.08651611 23.164405 30.10704904 21.74609375 30.09765625 C20.89208984 30.09443359 20.03808594 30.09121094 19.15820312 30.08789062 C17.81145508 30.07532227 17.81145508 30.07532227 16.4375 30.0625 C15.53580078 30.05798828 14.63410156 30.05347656 13.70507812 30.04882812 C11.46998686 30.03700225 9.23502563 30.0205222 7 30 C4.94715653 24.1217567 3.21316794 18.2534277 1.8125 12.1875 C1.63525391 11.45080078 1.45800781 10.71410156 1.27539062 9.95507812 C0.47077657 6.51605202 0 3.55220692 0 0 Z " fill="#1C5BA3" transform="translate(257,359)"/>
<path d="M0 0 C3.11960833 2.75686317 4.43364973 4.39218149 5.6875 8.375 C5.66092317 15.96179871 3.61605354 23.23796713 1.625 30.5 C1.34333984 31.551875 1.06167969 32.60375 0.77148438 33.6875 C0.08376638 36.25187219 -0.61338377 38.81371179 -1.3125 41.375 C-4.9425 41.375 -8.5725 41.375 -12.3125 41.375 C-11.81326248 34.26086529 -10.14219893 27.74510701 -8.15234375 20.92578125 C-7.35030836 17.53485023 -6.91232164 14.83476985 -7.3125 11.375 C-10.18827027 9.05720301 -10.18827027 9.05720301 -13.75 9.375 C-17.4642412 10.41759402 -18.34356704 11.08442539 -20.31079102 14.26660156 C-22.56751293 19.01655293 -23.72965654 24.18176264 -25.0625 29.25 C-25.37832031 30.4153125 -25.69414063 31.580625 -26.01953125 32.78125 C-26.79366465 35.64319771 -27.55441556 38.5087594 -28.3125 41.375 C-31.9425 41.375 -35.5725 41.375 -39.3125 41.375 C-38.71897014 35.79527228 -37.72202138 30.56419831 -36.24609375 25.15625 C-36.04774429 24.41290405 -35.84939484 23.66955811 -35.64503479 22.90368652 C-35.01830417 20.55943097 -34.38429091 18.2172199 -33.75 15.875 C-33.32047784 14.27356769 -32.8914369 12.67200623 -32.46289062 11.0703125 C-31.41831236 7.17036127 -30.36720385 3.27222448 -29.3125 -0.625 C-24.3125 -0.625 -19.3125 -0.625 -14.3125 -0.625 C-9.03026236 -2.38574588 -4.93564139 -2.42125804 0 0 Z " fill="#0E0E0E" transform="translate(728.3125,701.625)"/>
<path d="M0 0 C3.19531348 2.15497886 4.32828916 3.18793775 5.6875 6.8125 C6.44828239 14.92576929 4.93817867 22.166211 2.75 29.9375 C2.47220703 30.97648438 2.19441406 32.01546875 1.90820312 33.0859375 C-0.14474534 40.64474534 -0.14474534 40.64474534 -1.3125 41.8125 C-3.16537502 41.88476502 -5.02083878 41.8963122 -6.875 41.875 C-7.88691406 41.86597656 -8.89882813 41.85695313 -9.94140625 41.84765625 C-11.11509766 41.83025391 -11.11509766 41.83025391 -12.3125 41.8125 C-11.00593999 34.5060789 -9.12451577 27.43895609 -7.01953125 20.328125 C-6.29767832 16.73880106 -6.46229409 14.34329143 -7.3125 10.8125 C-12.27809064 9.58218783 -12.27809064 9.58218783 -16.88671875 11.32421875 C-19.86274375 14.37692072 -20.85710516 17.36217223 -21.9375 21.375 C-22.1427832 22.08084229 -22.34806641 22.78668457 -22.55957031 23.51391602 C-23.16366676 25.60851344 -23.74253049 27.70838796 -24.3125 29.8125 C-24.62445313 30.95460938 -24.93640625 32.09671875 -25.2578125 33.2734375 C-25.76141415 35.13627466 -26.25521689 37.00181998 -26.734375 38.87109375 C-27.3125 40.8125 -27.3125 40.8125 -28.3125 41.8125 C-30.16537502 41.88476502 -32.02083878 41.8963122 -33.875 41.875 C-34.88691406 41.86597656 -35.89882813 41.85695313 -36.94140625 41.84765625 C-37.72386719 41.83605469 -38.50632812 41.82445312 -39.3125 41.8125 C-36.17851365 27.66089705 -32.29073027 13.74748075 -28.3125 -0.1875 C-24.6825 -0.1875 -21.0525 -0.1875 -17.3125 -0.1875 C-17.3125 0.4725 -17.3125 1.1325 -17.3125 1.8125 C-16.4875 1.3175 -15.6625 0.8225 -14.8125 0.3125 C-9.46757008 -1.97818425 -5.45717994 -1.95634753 0 0 Z " fill="#0E0E0E" transform="translate(430.3125,701.1875)"/>
<path d="M0 0 C14.85 0 29.7 0 45 0 C44 8 44 8 43 10 C37.39 10 31.78 10 26 10 C25.484375 12.26875 24.96875 14.5375 24.4375 16.875 C22.5654525 24.94091143 20.46123457 32.94136228 18.3125 40.9375 C18.00304443 42.0929834 17.69358887 43.2484668 17.37475586 44.43896484 C17.08221924 45.52000488 16.78968262 46.60104492 16.48828125 47.71484375 C16.22571533 48.68542725 15.96314941 49.65601074 15.69262695 50.65600586 C15 53 15 53 14 55 C10.37 55 6.74 55 3 55 C3.59487048 49.23914903 4.69326173 43.90530364 6.28515625 38.34375 C6.50570175 37.55601196 6.72624725 36.76827393 6.95347595 35.95666504 C7.65111588 33.4695627 8.35666058 30.98478626 9.0625 28.5 C9.54024039 26.8022315 10.01745894 25.10431606 10.49414062 23.40625 C11.65577696 19.26880442 12.82810307 15.1346055 14 11 C8.72 10.67 3.44 10.34 -2 10 C-1 3 -1 3 0 0 Z " fill="#0C0C0C" transform="translate(190,688)"/>
<path d="M0 0 C14.85 0 29.7 0 45 0 C44.00424757 3.98300973 42.65362053 7.26137967 41 11 C37.04 11 33.08 11 29 11 C28.73445313 11.84820312 28.46890625 12.69640625 28.1953125 13.5703125 C26.21913528 19.24052034 23.5502659 24.56682482 21 30 C13.74 30 6.48 30 -1 30 C1.12261208 23.63216377 3.23108925 18.01521991 6 12 C2.7 11.67 -0.6 11.34 -4 11 C-1.125 2.25 -1.125 2.25 0 0 Z " fill="#1A59A2" transform="translate(248,411)"/>
<path d="M0 0 C-0.53895377 3.7726764 -1.99535358 5.68212991 -5 8 C-7.44656132 7.84215733 -9.13890396 6.93785875 -11.375 5.9375 C-14.38830246 4.86132055 -16.82381432 4.85227043 -20 5 C-20.33 6.32 -20.66 7.64 -21 9 C-19.64455078 9.68835938 -19.64455078 9.68835938 -18.26171875 10.390625 C-17.0700523 11.00991623 -15.87866034 11.62973585 -14.6875 12.25 C-13.51574219 12.85328125 -12.34398437 13.4565625 -11.13671875 14.078125 C-8.17801448 15.89093011 -6.63821467 16.98891529 -5 20 C-4.07216537 24.5973788 -4.60012927 28.20025854 -6.6875 32.375 C-11.11169675 37.39706117 -15.19800887 38.8100345 -21.6875 39.25 C-28.75083984 39.14457702 -34.82593805 36.8402515 -40 32 C-39.45773019 28.20411134 -37.79872437 26.52788007 -35 24 C-34.484375 24.268125 -33.96875 24.53625 -33.4375 24.8125 C-32.633125 25.204375 -31.82875 25.59625 -31 26 C-29.3603125 26.8353125 -29.3603125 26.8353125 -27.6875 27.6875 C-23.57069509 29.15280344 -21.21189421 28.94552727 -17 28 C-17 26.68 -17 25.36 -17 24 C-17.81984375 23.62488281 -18.6396875 23.24976563 -19.484375 22.86328125 C-20.56203125 22.35152344 -21.6396875 21.83976563 -22.75 21.3125 C-23.81734375 20.81363281 -24.8846875 20.31476562 -25.984375 19.80078125 C-29.22916692 17.86315291 -30.95681852 16.16206658 -33 13 C-33.59902452 8.28268194 -33.48625961 6.05356249 -31.5 1.75 C-22.13425336 -8.5523213 -11.18760698 -5.59380349 0 0 Z " fill="#0E0E0E" transform="translate(912,705)"/>
<path d="M0 0 C0.79719955 0.00222061 1.59439911 0.00444122 2.41575623 0.00672913 C3.31661453 0.00680466 4.21747284 0.00688019 5.14562988 0.00695801 C6.12478867 0.01211929 7.10394745 0.01728058 8.11277771 0.02259827 C9.11018478 0.02401321 10.10759186 0.02542816 11.13522339 0.02688599 C14.3348027 0.03250337 17.53431315 0.04505881 20.73387146 0.05775452 C22.89728191 0.06276728 25.06069345 0.06733057 27.22410583 0.07142639 C32.53988471 0.08247845 37.85562317 0.09923348 43.17137146 0.12025452 C42.04551006 3.65867607 40.84042387 6.7821497 39.17137146 10.12025452 C35.21137146 10.12025452 31.25137146 10.12025452 27.17137146 10.12025452 C26.77949646 11.37837952 26.38762146 12.63650452 25.98387146 13.93275452 C24.12929193 19.53215808 21.67164306 24.78183677 19.17137146 30.12025452 C11.91137146 30.12025452 4.65137146 30.12025452 -2.82862854 30.12025452 C-2.12123358 26.58327971 -1.66933906 24.42355833 -0.19972229 21.35072327 C0.11287537 20.69007874 0.42547302 20.0294342 0.74754333 19.34877014 C1.07303162 18.67523499 1.3985199 18.00169983 1.73387146 17.30775452 C2.22790466 16.26844788 2.22790466 16.26844788 2.73191833 15.20814514 C3.54009397 13.50980504 4.35505523 11.81469683 5.17137146 10.12025452 C1.54137146 10.12025452 -2.08862854 10.12025452 -5.82862854 10.12025452 C-2.60574705 0.17135949 -2.60574705 0.17135949 0 0 Z " fill="#1C5BA3" transform="translate(493.82862854003906,358.87974548339844)"/>
<path d="M0 0 C3.63 0 7.26 0 11 0 C12.30774665 7.98614219 13.38541771 15.9295642 14 24 C16.79358169 21.35382496 18.95820148 18.75797318 20.98046875 15.48828125 C21.50447266 14.64845703 22.02847656 13.80863281 22.56835938 12.94335938 C23.10267578 12.07517578 23.63699219 11.20699219 24.1875 10.3125 C25.2632914 8.57878659 26.34006147 6.84567994 27.41796875 5.11328125 C28.12602661 3.96533081 28.12602661 3.96533081 28.84838867 2.79418945 C30 1 30 1 31 0 C33.01964199 -0.07244053 35.04167124 -0.08377188 37.0625 -0.0625 C38.71958984 -0.04896484 38.71958984 -0.04896484 40.41015625 -0.03515625 C41.26480469 -0.02355469 42.11945312 -0.01195312 43 0 C39.51283594 7.16651781 35.04261302 13.82010008 30.7722168 20.53710938 C29.63371783 22.34362095 28.50991145 24.15947712 27.40112305 25.984375 C25.79462648 28.62380666 24.14011518 31.22689723 22.47265625 33.828125 C21.98886002 34.6467804 21.50506378 35.46543579 21.00660706 36.30889893 C19.46893567 38.64043655 18.24197329 40.32701089 16 42 C12.23402867 42.66170441 8.77855702 42.4982573 5 42 C4.28152391 37.1445539 3.56967325 32.28819808 2.86376953 27.4309082 C2.62304667 25.78090646 2.38056018 24.13116096 2.13623047 22.48168945 C1.78401771 20.10173755 1.43829601 17.72091617 1.09375 15.33984375 C0.9843811 14.61039047 0.87501221 13.88093719 0.7623291 13.12937927 C0.12958146 8.70348776 -0.10260928 4.47119936 0 0 Z " fill="#0E0E0E" transform="translate(761,701)"/>
<path d="M0 0 C7.26 0 14.52 0 22 0 C21.10633671 4.46831643 19.76364001 8.19727535 17.9375 12.3125 C16.968125 14.519375 15.99875 16.72625 15 19 C19.95 19 24.9 19 30 19 C28.64831181 27.11012916 28.64831181 27.11012916 26 30 C22.94158124 30.45340965 20.44536143 30.5847985 17.39453125 30.48828125 C16.55532639 30.48120651 15.71612152 30.47413177 14.85148621 30.46684265 C12.17091741 30.43885167 9.49243733 30.37610801 6.8125 30.3125 C4.99547288 30.28742305 3.17841301 30.26460882 1.36132812 30.24414062 C-3.09325278 30.18900999 -7.54627229 30.10270783 -12 30 C-11.35990983 26.03526237 -10.1301723 22.7055586 -8.49609375 19.04296875 C-8.00302734 17.93115234 -7.50996094 16.81933594 -7.00195312 15.67382812 C-6.48568359 14.52333984 -5.96941406 13.37285156 -5.4375 12.1875 C-4.91736328 11.01767578 -4.39722656 9.84785156 -3.86132812 8.64257812 C-2.57874239 5.75970194 -1.28996721 2.87958085 0 0 Z " fill="#1D5BA3" transform="translate(561,464)"/>
<path d="M0 0 C3.96 0 7.92 0 12 0 C10.125 8.75 10.125 8.75 9 11 C12.3 11 15.6 11 19 11 C18.125 19.875 18.125 19.875 17 21 C15.14712498 21.07226502 13.29166122 21.0838122 11.4375 21.0625 C10.42558594 21.05347656 9.41367187 21.04445313 8.37109375 21.03515625 C7.19740234 21.01775391 7.19740234 21.01775391 6 21 C5.83564453 21.99966797 5.83564453 21.99966797 5.66796875 23.01953125 C4.49817386 29.81955849 2.89554843 36.36558051 1 43 C5.95 42.505 5.95 42.505 11 42 C10.54177532 45.46941546 10.10868317 48.67395049 9 52 C-1.65530208 54.7375282 -1.65530208 54.7375282 -7 52 C-9.63825164 50.27149031 -9.95927917 49.15742589 -10.7578125 46.0703125 C-11.43878916 40.80822009 -9.61585513 36.03527582 -8.0625 31.0625 C-7.77181641 30.09248047 -7.48113281 29.12246094 -7.18164062 28.12304688 C-6.46693138 25.74458823 -5.73951345 23.37083996 -5 21 C-6.65 21 -8.3 21 -10 21 C-9.34 17.7 -8.68 14.4 -8 11 C-6.02 11 -4.04 11 -2 11 C-1.34 7.37 -0.68 3.74 0 0 Z " fill="#121212" transform="translate(945,690)"/>
<path d="M0 0 C0.91644287 0.00523682 1.83288574 0.01047363 2.77709961 0.01586914 C4.26113281 0.02070313 4.26113281 0.02070313 5.77514648 0.02563477 C6.81606445 0.03401367 7.85698242 0.04239258 8.92944336 0.05102539 C10.49662109 0.05779297 10.49662109 0.05779297 12.09545898 0.06469727 C14.68600996 0.07652627 17.27644895 0.0930085 19.86694336 0.11352539 C17.78952677 6.84509488 15.16951638 13.21063988 12.24194336 19.61352539 C11.83459961 20.51844727 11.42725586 21.42336914 11.00756836 22.35571289 C8.00649521 28.97397354 8.00649521 28.97397354 6.86694336 30.11352539 C5.23221454 30.20052881 3.59380281 30.22053602 1.95678711 30.21118164 C0.96743164 30.20795898 -0.02192383 30.20473633 -1.04125977 30.20141602 C-2.08217773 30.19303711 -3.1230957 30.1846582 -4.19555664 30.17602539 C-5.2403418 30.17151367 -6.28512695 30.16700195 -7.36157227 30.16235352 C-9.95212324 30.15052452 -12.54256223 30.13404228 -15.13305664 30.11352539 C-13.05564005 23.3819559 -10.43562966 17.0164109 -7.50805664 10.61352539 C-7.10071289 9.70860352 -6.69336914 8.80368164 -6.27368164 7.87133789 C-2.77127738 0.14749273 -2.77127738 0.14749273 0 0 Z " fill="#1B5AA2" transform="translate(468.133056640625,358.886474609375)"/>
<path d="M0 0 C7.26 0 14.52 0 22 0 C21.16666756 4.16666219 20.19946861 7.13912207 18.49609375 10.95703125 C18.00302734 12.06884766 17.50996094 13.18066406 17.00195312 14.32617188 C16.48568359 15.47666016 15.96941406 16.62714844 15.4375 17.8125 C14.91736328 18.98232422 14.39722656 20.15214844 13.86132812 21.35742188 C12.57874239 24.24029806 11.28996721 27.12041915 10 30 C2.74 30 -4.52 30 -12 30 C-11.20155453 25.20932717 -10.47576722 22.39646785 -8.49609375 18.1640625 C-8.00302734 17.10058594 -7.50996094 16.03710938 -7.00195312 14.94140625 C-6.48568359 13.84699219 -5.96941406 12.75257813 -5.4375 11.625 C-4.91736328 10.50738281 -4.39722656 9.38976562 -3.86132812 8.23828125 C-2.58074445 5.48913831 -1.29124116 2.74415337 0 0 Z " fill="#1A59A2" transform="translate(541,359)"/>
<path d="M0 0 C0.87454834 0.00523682 1.74909668 0.01047363 2.65014648 0.01586914 C3.59438477 0.0190918 4.53862305 0.02231445 5.51147461 0.02563477 C6.50469727 0.03401367 7.49791992 0.04239258 8.52124023 0.05102539 C9.51833008 0.05553711 10.51541992 0.06004883 11.54272461 0.06469727 C14.01478872 0.07652532 16.48673541 0.0930069 18.95874023 0.11352539 C18.3907986 4.4705702 17.31384862 7.97501782 15.45483398 11.94946289 C14.96176758 13.01293945 14.46870117 14.07641602 13.96069336 15.17211914 C13.44442383 16.2665332 12.9281543 17.36094727 12.39624023 18.48852539 C11.87610352 19.60614258 11.3559668 20.72375977 10.82006836 21.87524414 C9.53948468 24.62438708 8.24998139 27.36937202 6.95874023 30.11352539 C-0.30125977 30.11352539 -7.56125977 30.11352539 -15.04125977 30.11352539 C-14.21466509 25.98055202 -13.30405623 23.1604282 -11.57250977 19.41040039 C-11.08395508 18.34821289 -10.59540039 17.28602539 -10.09204102 16.19165039 C-9.3244043 14.54422852 -9.3244043 14.54422852 -8.54125977 12.86352539 C-8.02950195 11.74977539 -7.51774414 10.63602539 -6.99047852 9.48852539 C-2.67365506 0.14869628 -2.67365506 0.14869628 0 0 Z " fill="#1E5CA4" transform="translate(237.041259765625,358.886474609375)"/>
<path d="M0 0 C7.26 0 14.52 0 22 0 C21.16666756 4.16666219 20.19946861 7.13912207 18.49609375 10.95703125 C18.00302734 12.06884766 17.50996094 13.18066406 17.00195312 14.32617188 C16.48568359 15.47666016 15.96941406 16.62714844 15.4375 17.8125 C14.91736328 18.98232422 14.39722656 20.15214844 13.86132812 21.35742188 C12.57874239 24.24029806 11.28996721 27.12041915 10 30 C2.74 30 -4.52 30 -12 30 C-11.16666756 25.83333781 -10.19946861 22.86087793 -8.49609375 19.04296875 C-8.00302734 17.93115234 -7.50996094 16.81933594 -7.00195312 15.67382812 C-6.48568359 14.52333984 -5.96941406 13.37285156 -5.4375 12.1875 C-4.91736328 11.01767578 -4.39722656 9.84785156 -3.86132812 8.64257812 C-2.57874239 5.75970194 -1.28996721 2.87958085 0 0 Z " fill="#1F5CA4" transform="translate(347,464)"/>
<path d="M0 0 C-1.08284024 9.20414201 -1.08284024 9.20414201 -3 12 C-4.921875 12.50390625 -4.921875 12.50390625 -7.25 12.875 C-11.84601415 13.69387251 -13.94036943 15.10672911 -16.7265625 18.82421875 C-21.03412606 26.18407429 -22.87477355 34.81787815 -25 43 C-28.63 43 -32.26 43 -36 43 C-35.40647014 37.42027228 -34.40952138 32.18919831 -32.93359375 26.78125 C-32.73524429 26.03790405 -32.53689484 25.29455811 -32.33253479 24.52868652 C-31.70580417 22.18443097 -31.07179091 19.8422199 -30.4375 17.5 C-30.00797784 15.89856769 -29.5789369 14.29700623 -29.15039062 12.6953125 C-28.10581236 8.79536127 -27.05470385 4.89722448 -26 1 C-22.04 1 -18.08 1 -14 1 C-14 1.99 -14 2.98 -14 4 C-13.49210937 3.71125 -12.98421875 3.4225 -12.4609375 3.125 C-8.12191875 0.78485506 -5.06064817 -0.50606482 0 0 Z " fill="#0E0E0E" transform="translate(519,700)"/>
<path d="M0 0 C-0.66 3.63 -1.32 7.26 -2 11 C-3.051875 11.268125 -4.10375 11.53625 -5.1875 11.8125 C-11.04438563 13.63677585 -14.64341729 15.80271064 -18 21 C-21.07241701 28.09914537 -23.05937568 35.52859638 -25 43 C-28.63 43 -32.26 43 -36 43 C-35.40647014 37.42027228 -34.40952138 32.18919831 -32.93359375 26.78125 C-32.73524429 26.03790405 -32.53689484 25.29455811 -32.33253479 24.52868652 C-31.70580417 22.18443097 -31.07179091 19.8422199 -30.4375 17.5 C-30.00797784 15.89856769 -29.5789369 14.29700623 -29.15039062 12.6953125 C-28.10581236 8.79536127 -27.05470385 4.89722448 -26 1 C-22.04 1 -18.08 1 -14 1 C-14 1.99 -14 2.98 -14 4 C-13.49210938 3.71125 -12.98421875 3.4225 -12.4609375 3.125 C-8.12191875 0.78485506 -5.06064817 -0.50606482 0 0 Z " fill="#0E0E0E" transform="translate(878,700)"/>
<path d="M0 0 C1.24441619 -0.00173077 1.24441619 -0.00173077 2.5139721 -0.0034965 C5.3240666 -0.00616619 8.13410505 -0.0016381 10.9441967 0.00279331 C12.96707513 0.00235768 14.9899535 0.00148293 17.01283157 0.00020415 C22.59509118 -0.00204243 28.17733177 0.00198269 33.75958896 0.00698221 C39.77051657 0.01128419 45.78144303 0.00984046 51.79237175 0.00907993 C62.21453515 0.00855454 72.63669342 0.01166821 83.05885506 0.01731777 C93.99268053 0.02322954 104.92650352 0.02708265 115.86033058 0.02817059 C116.87908925 0.0282737 116.87908925 0.0282737 117.91842889 0.02837889 C121.36743298 0.02871721 124.81643707 0.0290186 128.26544116 0.02930576 C152.71124833 0.03140763 177.15705225 0.03814903 201.60285759 0.04760838 C225.35546158 0.05678889 249.10806468 0.06387442 272.86067009 0.06811619 C273.59249443 0.06824771 274.32431878 0.06837924 275.07831962 0.06851475 C282.42742633 0.06983324 289.77653306 0.07110906 297.12563979 0.07235361 C312.09736502 0.07489 327.0690902 0.07771125 342.04081535 0.08070469 C342.72923035 0.08084198 343.41764534 0.08097927 344.12692139 0.08112072 C390.11841322 0.09032542 436.10990315 0.10619185 482.10139275 0.12304783 C482.10139275 0.45304783 482.10139275 0.78304783 482.10139275 1.12304783 C320.73139275 1.12304783 159.36139275 1.12304783 -6.89860725 1.12304783 C-6.56860725 5.74304783 -6.23860725 10.36304783 -5.89860725 15.12304783 C-6.22860725 15.12304783 -6.55860725 15.12304783 -6.89860725 15.12304783 C-7.22860725 11.82304783 -7.55860725 8.52304783 -7.89860725 5.12304783 C-8.88860725 4.79304783 -9.87860725 4.46304783 -10.89860725 4.12304783 C-10.56860725 3.13304783 -10.23860725 2.14304783 -9.89860725 1.12304783 C-6.76858951 -0.44196104 -3.43569951 -0.01155835 0 0 Z " fill="#D87767" transform="translate(611.8986072540283,378.8769521713257)"/>
<path d="M0 0 C0.33 0 0.66 0 1 0 C1 1.65 1 3.3 1 5 C1.66 5 2.32 5 3 5 C3 5.66 3 6.32 3 7 C-157.71 7 -318.42 7 -484 7 C-484.33 5.35 -484.66 3.7 -485 2 C-484.34 2 -483.68 2 -483 2 C-483 3.32 -483 4.64 -483 6 C-323.94 6 -164.88 6 -1 6 C-0.67 4.02 -0.34 2.04 0 0 Z " fill="#EDC5BF" transform="translate(1091,394)"/>
<path d="M0 0 C3.63 0 7.26 0 11 0 C10.41424656 5.49910542 9.45027894 10.64256736 7.96875 15.96484375 C7.77277222 16.68362198 7.57679443 17.40240021 7.37487793 18.14295959 C6.96398052 19.64526492 6.5504186 21.14684385 6.13427734 22.64770508 C5.49541155 24.95406471 4.86625898 27.26292029 4.23828125 29.57226562 C3.83650222 31.0366134 3.43417842 32.50081183 3.03125 33.96484375 C2.84268433 34.65642075 2.65411865 35.34799774 2.45983887 36.06053162 C1.11569484 40.88430516 1.11569484 40.88430516 0 42 C-1.85287502 42.07226502 -3.70833878 42.0838122 -5.5625 42.0625 C-6.57441406 42.05347656 -7.58632813 42.04445313 -8.62890625 42.03515625 C-9.41136719 42.02355469 -10.19382812 42.01195312 -11 42 C-7.86601365 27.84839705 -3.97823027 13.93498075 0 0 Z " fill="#101010" transform="translate(744,701)"/>
<path d="M0 0 C3.63 0 7.26 0 11 0 C9.62485317 8.33727763 7.68792755 16.44397957 5.48608398 24.59228516 C4.92939782 26.6550217 4.38129531 28.71991454 3.83398438 30.78515625 C3.48226892 32.09909176 3.13007387 33.41289901 2.77734375 34.7265625 C2.46015381 35.90814941 2.14296387 37.08973633 1.81616211 38.30712891 C1 41 1 41 0 42 C-1.85287502 42.07226502 -3.70833878 42.0838122 -5.5625 42.0625 C-6.57441406 42.05347656 -7.58632813 42.04445313 -8.62890625 42.03515625 C-9.41136719 42.02355469 -10.19382812 42.01195312 -11 42 C-9.57748733 34.0706999 -7.58010523 26.31184573 -5.48608398 18.53808594 C-4.93130395 16.47698057 -4.38233325 14.41438714 -3.83398438 12.3515625 C-1.13864806 2.27729612 -1.13864806 2.27729612 0 0 Z " fill="#0F0F0F" transform="translate(921,701)"/>
<path d="M0 0 C0.35113462 0.48738642 0.70226924 0.97477283 1.0640443 1.47692853 C3.96578638 3.75981164 6.31730812 3.37238926 9.97529125 3.36914349 C10.69293485 3.37260502 11.41057846 3.37606655 12.14996883 3.37963298 C14.57334525 3.38762266 16.99613296 3.37407502 19.41947937 3.36076355 C21.16686052 3.36207085 22.9142411 3.36469587 24.66161853 3.36853105 C29.47778092 3.37526285 34.29374448 3.36320643 39.10988152 3.34819686 C44.2980164 3.33527948 49.48613946 3.33962291 54.67428589 3.34190369 C63.66790628 3.34347915 72.66146153 3.33404147 81.65506554 3.31719017 C94.65840631 3.29284166 107.66171549 3.28499915 120.66507659 3.2812262 C141.76054094 3.27465519 162.85597054 3.25467643 183.95141602 3.22631836 C204.44750799 3.19879458 224.94359055 3.17755277 245.43969727 3.16479492 C246.70240822 3.16400675 247.96511918 3.16321858 249.26609411 3.16240653 C255.60054429 3.1584915 261.93499453 3.15470036 268.26944482 3.15097082 C320.84632056 3.1198547 373.42315859 3.06700125 426 3 C426.33 2.34 426.66 1.68 427 1 C427.66 1 428.32 1 429 1 C429 2.65 429 4.3 429 6 C287.76 6 146.52 6 1 6 C0.67 4.02 0.34 2.04 0 0 Z " fill="#D66C5E" transform="translate(634,470)"/>
<path d="M0 0 C8.25 0 16.5 0 25 0 C25 1.98 25 3.96 25 6 C23.31483046 7.68516954 21.21232212 7.13008019 18.90625 7.1328125 C17.87628906 7.13410156 16.84632813 7.13539063 15.78515625 7.13671875 C14.15900391 7.13091797 14.15900391 7.13091797 12.5 7.125 C11.41589844 7.12886719 10.33179688 7.13273437 9.21484375 7.13671875 C8.18488281 7.13542969 7.15492188 7.13414062 6.09375 7.1328125 C5.14177734 7.13168457 4.18980469 7.13055664 3.20898438 7.12939453 C1 7 1 7 0 6 C0 4.02 0 2.04 0 0 Z " fill="#E4492D" transform="translate(984,315)"/>
<path d="M0 0 C1.65322266 0.01740234 1.65322266 0.01740234 3.33984375 0.03515625 C4.99693359 0.04869141 4.99693359 0.04869141 6.6875 0.0625 C7.54214844 0.07410156 8.39679687 0.08570313 9.27734375 0.09765625 C8.96936049 1.57776996 8.65582575 3.0567295 8.33984375 4.53515625 C8.16582031 5.35886719 7.99179687 6.18257812 7.8125 7.03125 C7.27734375 9.09765625 7.27734375 9.09765625 6.27734375 10.09765625 C4.25770176 10.17009678 2.23567251 10.18142813 0.21484375 10.16015625 C-0.88988281 10.15113281 -1.99460937 10.14210938 -3.1328125 10.1328125 C-4.41478516 10.11541016 -4.41478516 10.11541016 -5.72265625 10.09765625 C-5.41467299 8.61754254 -5.10113825 7.138583 -4.78515625 5.66015625 C-4.61113281 4.83644531 -4.43710937 4.01273438 -4.2578125 3.1640625 C-3.45514639 0.06471672 -3.30183072 0.11843008 0 0 Z " fill="#161616" transform="translate(750.72265625,685.90234375)"/>
<path d="M0 0 C1.51400391 0.01740234 1.51400391 0.01740234 3.05859375 0.03515625 C4.07050781 0.04417969 5.08242188 0.05320312 6.125 0.0625 C7.29869141 0.07990234 7.29869141 0.07990234 8.49609375 0.09765625 C7.62109375 7.84765625 7.62109375 7.84765625 6.49609375 10.09765625 C3.7734375 10.51171875 3.7734375 10.51171875 0.43359375 10.72265625 C-0.67113281 10.79742188 -1.77585937 10.8721875 -2.9140625 10.94921875 C-3.76871094 10.99820313 -4.62335937 11.0471875 -5.50390625 11.09765625 C-5.19608129 9.45094213 -4.88251391 7.80530049 -4.56640625 6.16015625 C-4.39238281 5.24363281 -4.21835937 4.32710937 -4.0390625 3.3828125 C-3.30356004 0.24216329 -3.2683482 0.12747068 0 0 Z " fill="#131313" transform="translate(927.50390625,685.90234375)"/>
<path d="M0 0 C14.85 0 29.7 0 45 0 C44.67 1.32 44.34 2.64 44 4 C43.505 3.01 43.505 3.01 43 2 C29.14 2 15.28 2 1 2 C0.67 3.32 0.34 4.64 0 6 C-0.66 6 -1.32 6 -2 6 C-1.34 4.02 -0.68 2.04 0 0 Z " fill="#638EBF" transform="translate(248,411)"/>
<path d="M0 0 C12.87 0 25.74 0 39 0 C38.67 1.65 38.34 3.3 38 5 C37.505 3.515 37.505 3.515 37 2 C32.07022981 2.11825365 27.14066104 2.24250242 22.21118164 2.37231445 C20.53414013 2.41563167 18.85705542 2.45730907 17.17993164 2.49731445 C14.76956159 2.55509485 12.3594083 2.6187668 9.94921875 2.68359375 C9.19912033 2.70030624 8.44902191 2.71701874 7.67619324 2.73423767 C4.54322008 2.82344233 1.9929064 3.00236453 -1 4 C-0.67 2.68 -0.34 1.36 0 0 Z " fill="#5D8ABD" transform="translate(297,411)"/>
<path d="M0 0 C0.33 1.32 0.66 2.64 1 4 C13.87 4 26.74 4 40 4 C39.67 4.66 39.34 5.32 39 6 C25.8 6 12.6 6 -1 6 C-0.67 4.02 -0.34 2.04 0 0 Z " fill="#4F80B7" transform="translate(305,383)"/>
<path d="M0 0 C1.61165039 0.03383789 1.61165039 0.03383789 3.25585938 0.06835938 C5.9011685 0.12714402 8.54361413 0.20926043 11.1875 0.3125 C12.52913195 4.68098453 13.4733048 8.67086485 13.8125 13.25 C13.88726563 14.20777344 13.96203125 15.16554688 14.0390625 16.15234375 C14.08804688 16.86519531 14.13703125 17.57804687 14.1875 18.3125 C11.46643306 15.59143306 11.58094428 13.46473689 11.0625 9.6875 C10.89492188 8.49898438 10.72734375 7.31046875 10.5546875 6.0859375 C10.43351563 5.17070312 10.31234375 4.25546875 10.1875 3.3125 C6.58348519 3.22548961 2.97973988 3.17210612 -0.625 3.125 C-1.64916016 3.09986328 -2.67332031 3.07472656 -3.72851562 3.04882812 C-4.71142578 3.03916016 -5.69433594 3.02949219 -6.70703125 3.01953125 C-7.61300049 3.0038208 -8.51896973 2.98811035 -9.45239258 2.97192383 C-12.23694206 3.37374927 -13.08849535 4.14938562 -14.8125 6.3125 C-15.4725 5.9825 -16.1325 5.6525 -16.8125 5.3125 C-12.30521255 -1.03368078 -7.32349494 -0.29079241 0 0 Z " fill="#3C72B0" transform="translate(531.8125,463.6875)"/>
<path d="M0 0 C1.54010742 0.03383789 1.54010742 0.03383789 3.11132812 0.06835938 C5.6382179 0.12712425 8.16210255 0.20922151 10.6875 0.3125 C12.8125 6.8125 12.8125 6.8125 11.6875 11.3125 C11.0275 8.6725 10.3675 6.0325 9.6875 3.3125 C6.10423499 3.25435915 2.52109162 3.21885643 -1.0625 3.1875 C-2.07828125 3.17074219 -3.0940625 3.15398437 -4.140625 3.13671875 C-5.1203125 3.13027344 -6.1 3.12382812 -7.109375 3.1171875 C-8.01010742 3.10671387 -8.91083984 3.09624023 -9.83886719 3.08544922 C-12.45176856 3.32528324 -14.06914666 3.98937936 -16.3125 5.3125 C-11.83906254 -0.87624246 -7.22748291 -0.30056711 0 0 Z " fill="#5D8ABD" transform="translate(433.3125,410.6875)"/>
<path d="M0 0 C0.33 0 0.66 0 1 0 C1 2.31 1 4.62 1 7 C2.32 6.01 3.64 5.02 5 4 C5.66 4.33 6.32 4.66 7 5 C5.625 7.5 5.625 7.5 4 10 C3.34 10 2.68 10 2 10 C2.33 11.32 2.66 12.64 3 14 C-4.26 14 -11.52 14 -19 14 C-18.67 12.68 -18.34 11.36 -18 10 C-18 10.99 -18 11.98 -18 13 C-11.73 13 -5.46 13 1 13 C0.67 11.68 0.34 10.36 0 9 C-0.06548492 7.41788427 -0.08578381 5.83329919 -0.0625 4.25 C-0.05347656 3.45078125 -0.04445313 2.6515625 -0.03515625 1.828125 C-0.02355469 1.22484375 -0.01195312 0.6215625 0 0 Z " fill="#4D7EB6" transform="translate(286,480)"/>
<path d="M0 0 C0 0.99 0 1.98 0 3 C6.6 3.33 13.2 3.66 20 4 C19.67 4.66 19.34 5.32 19 6 C11.41 6 3.82 6 -4 6 C-2 2 -2 2 0 0 Z " fill="#3B72AF" transform="translate(234,488)"/>
<path d="M0 0 C4.95 0.33 9.9 0.66 15 1 C15 1.33 15 1.66 15 2 C17.64 2.33 20.28 2.66 23 3 C22.67 4.65 22.34 6.3 22 8 C21.67 6.68 21.34 5.36 21 4 C12.75 4 4.5 4 -4 4 C-4 3.67 -4 3.34 -4 3 C-2.02 2.67 -0.04 2.34 2 2 C1.34 1.34 0.68 0.68 0 0 Z " fill="#3E73B0" transform="translate(488,420)"/>
<path d="M0 0 C1.125 3.75 1.125 3.75 0 6 C6.6 6 13.2 6 20 6 C20 6.66 20 7.32 20 8 C12.74 8 5.48 8 -2 8 C-1 2 -1 2 0 0 Z " fill="#5483B9" transform="translate(531,381)"/>
<path d="M0 0 C0.33 1.32 0.66 2.64 1 4 C7.27 4.33 13.54 4.66 20 5 C20 5.66 20 6.32 20 7 C12.74 7 5.48 7 -2 7 C-1 2 -1 2 0 0 Z " fill="#3D73B0" transform="translate(432,487)"/>
<path d="M0 0 C1.125 3.75 1.125 3.75 0 6 C6.6 6 13.2 6 20 6 C19.67 6.66 19.34 7.32 19 8 C12.07 8 5.14 8 -2 8 C-1 2 -1 2 0 0 Z " fill="#3970AE" transform="translate(173,486)"/>
<path d="M0 0 C0.33 1.32 0.66 2.64 1 4 C7.27 4.33 13.54 4.66 20 5 C20 5.66 20 6.32 20 7 C12.74 7 5.48 7 -2 7 C-1 2 -1 2 0 0 Z " fill="#5181B8" transform="translate(159,382)"/>
<path d="M0 0 C1.125 3.75 1.125 3.75 0 6 C6.6 6 13.2 6 20 6 C19.67 6.66 19.34 7.32 19 8 C12.07 8 5.14 8 -2 8 C-1 3 -1 3 0 0 Z " fill="#5382B9" transform="translate(353,381)"/>
<path d="M0 0 C6.93 0 13.86 0 21 0 C20.67 1.65 20.34 3.3 20 5 C19.67 4.01 19.34 3.02 19 2 C12.4 2.33 5.8 2.66 -1 3 C-0.67 2.01 -0.34 1.02 0 0 Z " fill="#5E8BBE" transform="translate(379,411)"/>
<path d="M0 0 C0.33 0.66 0.66 1.32 1 2 C7.93 2 14.86 2 22 2 C21.67 2.66 21.34 3.32 21 4 C13.74 4 6.48 4 -1 4 C-0.67 2.68 -0.34 1.36 0 0 Z " fill="#5685BA" transform="translate(454,385)"/>
<path d="M0 0 C0.33 0.66 0.66 1.32 1 2 C-1.40377406 5.94905738 -2.93745128 7.97994815 -7 10 C-8.44155675 11.28376112 -9.83657025 12.6211899 -11.1875 14 C-11.88230469 14.70125 -12.57710937 15.4025 -13.29296875 16.125 C-15.06189325 17.89758332 -15.06189325 17.89758332 -16 20 C-17.32 19.67 -18.64 19.34 -20 19 C-19.09121094 18.19949219 -19.09121094 18.19949219 -18.1640625 17.3828125 C-11.87883813 11.7937976 -5.88976901 6.00255182 0 0 Z " fill="#E45A40" transform="translate(1001,249)"/>
<path d="M0 0 C0 0.66 0 1.32 0 2 C-1.65 3.65 -3.3 5.3 -5 7 C1.27 7.33 7.54 7.66 14 8 C14 8.33 14 8.66 14 9 C6.41 9 -1.18 9 -9 9 C-4.5 0 -4.5 0 0 0 Z " fill="#386FAE" transform="translate(400,432)"/>
<path d="M0 0 C6.6 0 13.2 0 20 0 C19.67 1.65 19.34 3.3 19 5 C18.67 4.01 18.34 3.02 18 2 C12.06 2 6.12 2 0 2 C0 1.34 0 0.68 0 0 Z " fill="#4C7DB6" transform="translate(328,379)"/>
<path d="M0 0 C5.28 0.33 10.56 0.66 16 1 C15.67 2.98 15.34 4.96 15 7 C14.67 5.68 14.34 4.36 14 3 C9.05 3 4.1 3 -1 3 C-0.67 2.01 -0.34 1.02 0 0 Z " fill="#5886BB" transform="translate(575,482)"/>
<path d="M0 0 C-1.875 3.875 -1.875 3.875 -3 5 C3.27 5.33 9.54 5.66 16 6 C16 6.33 16 6.66 16 7 C8.41 7 0.82 7 -7 7 C-3.5 0 -3.5 0 0 0 Z " fill="#3C72B0" transform="translate(513,434)"/>
<path d="M0 0 C0.33 0 0.66 0 1 0 C1.33 3.3 1.66 6.6 2 10 C-4.93 10 -11.86 10 -19 10 C-18.67 8.68 -18.34 7.36 -18 6 C-18 6.99 -18 7.98 -18 9 C-9.585 8.505 -9.585 8.505 -1 8 C-0.67 5.36 -0.34 2.72 0 0 Z " fill="#4A7CB5" transform="translate(546,484)"/>
<path d="M0 0 C0.33 0.66 0.66 1.32 1 2 C4.63 2 8.26 2 12 2 C11.22404875 5.10380501 10.4731994 7.25002779 9 10 C8.67 9.34 8.34 8.68 8 8 C8.33 7.01 8.66 6.02 9 5 C5.7 4.67 2.4 4.34 -1 4 C-0.67 2.68 -0.34 1.36 0 0 Z " fill="#4478B3" transform="translate(245,418)"/>
<path d="M0 0 C0.66 0.33 1.32 0.66 2 1 C0.89718873 2.27200971 -0.20730769 3.54255853 -1.3125 4.8125 C-1.92738281 5.52019531 -2.54226563 6.22789062 -3.17578125 6.95703125 C-4.73334335 8.70136739 -6.32658875 10.36778041 -8 12 C-8.99 11.67 -9.98 11.34 -11 11 C-7.33333333 7.33333333 -3.66666667 3.66666667 0 0 Z " fill="#386FAE" transform="translate(502,480)"/>
<path d="M0 0 C7.26 0 14.52 0 22 0 C21.34 2.31 20.68 4.62 20 7 C19.67 7 19.34 7 19 7 C19 5.02 19 3.04 19 1 C12.73 1 6.46 1 0 1 C0 0.67 0 0.34 0 0 Z " fill="#5281B8" transform="translate(477,464)"/>
<path d="M0 0 C2.475 0.99 2.475 0.99 5 2 C5 2.99 5 3.98 5 5 C3.68 5.33 2.36 5.66 1 6 C0.34 8.64 -0.32 11.28 -1 14 C-1.33 14 -1.66 14 -2 14 C-1.03644647 4.58997722 -1.03644647 4.58997722 0 0 Z " fill="#54362E" transform="translate(1089,401)"/>
<path d="M0 0 C0.66 0 1.32 0 2 0 C2 0.99 2 1.98 2 3 C3.65 2.34 5.3 1.68 7 1 C6.06725891 2.12894876 5.12859878 3.25300876 4.1875 4.375 C3.66542969 5.00148438 3.14335938 5.62796875 2.60546875 6.2734375 C1 8 1 8 -2 10 C-1.34 6.7 -0.68 3.4 0 0 Z " fill="#464646" transform="translate(862,701)"/>
<path d="M0 0 C0.66 0 1.32 0 2 0 C0.92334707 2.23612531 -0.19573706 4.29752033 -1.5625 6.375 C-3.1558667 9.28462614 -3.61916299 11.72480174 -4 15 C-4.33 15 -4.66 15 -5 15 C-5.42277492 8.86976372 -4.99795398 5.96715495 -1 1 C-0.67 0.67 -0.34 0.34 0 0 Z " fill="#313131" transform="translate(884,703)"/>
<path d="M0 0 C1.32 0.33 2.64 0.66 4 1 C3.195625 1.763125 2.39125 2.52625 1.5625 3.3125 C-1.16799024 5.79430898 -1.16799024 5.79430898 -2 9 C-2.66 9 -3.32 9 -4 9 C-3.46930939 5.17902761 -2.50298434 2.93828597 0 0 Z " fill="#383838" transform="translate(516,741)"/>
<path d="M0 0 C0.33 0.66 0.66 1.32 1 2 C1.66 2.33 2.32 2.66 3 3 C3.75 4.875 3.75 4.875 4 7 C3.01 8.485 3.01 8.485 2 10 C1.01 10 0.02 10 -1 10 C-0.67 6.7 -0.34 3.4 0 0 Z " fill="#222A28" transform="translate(608,412)"/>
<path d="M0 0 C0.99 0 1.98 0 3 0 C3.33 4.62 3.66 9.24 4 14 C3.67 14 3.34 14 3 14 C2.67 10.7 2.34 7.4 2 4 C1.01 3.67 0.02 3.34 -1 3 C-0.67 2.01 -0.34 1.02 0 0 Z " fill="#959694" transform="translate(602,380)"/>
<path d="M0 0 C0.66 0.33 1.32 0.66 2 1 C1.0409375 2.11375 1.0409375 2.11375 0.0625 3.25 C-1.78333407 5.7111121 -2.56069174 7.03466926 -3 10 C-3.66 9.34 -4.32 8.68 -5 8 C-4.74739753 4.21096292 -2.72150557 2.45813407 0 0 Z " fill="#292929" transform="translate(877,729)"/>
<path d="M0 0 C0.99 0 1.98 0 3 0 C2.67 2.31 2.34 4.62 2 7 C0.68 6.34 -0.64 5.68 -2 5 C-1.34 3.35 -0.68 1.7 0 0 Z " fill="#2B272B" transform="translate(1071,453)"/>
<path d="M0 0 C-1.15173355 2.46800047 -2.04783565 4.04783565 -4 6 C-4.64767793 8.57061311 -4.64767793 8.57061311 -5 11 C-6.125 9.3125 -6.125 9.3125 -7 7 C-5.97625225 3.09114494 -4.56743568 0 0 0 Z " fill="#4075B1" transform="translate(421,362)"/>
<path d="M0 0 C0.66 0 1.32 0 2 0 C2 0.99 2 1.98 2 3 C2.66 3 3.32 3 4 3 C2.48601545 6.78496138 1.9855604 7.0072198 -2 9 C-1.34 6.03 -0.68 3.06 0 0 Z " fill="#4D4D4D" transform="translate(503,701)"/>
<path d="M0 0 C1.6256807 0.30893932 3.25052748 0.6222695 4.875 0.9375 C5.77992188 1.11152344 6.68484375 1.28554688 7.6171875 1.46484375 C10 2 10 2 12 3 C12 3.66 12 4.32 12 5 C11.01 5.33 10.02 5.66 9 6 C8.67 5.34 8.34 4.68 8 4 C6.11736119 3.09656316 6.11736119 3.09656316 3.9375 2.375 C3.20402344 2.11460937 2.47054688 1.85421875 1.71484375 1.5859375 C1.14894531 1.39257812 0.58304687 1.19921875 0 1 C0 0.67 0 0.34 0 0 Z " fill="#4E7FB7" transform="translate(329,464)"/>
<path d="M0 0 C0.33 1.32 0.66 2.64 1 4 C2.32 4 3.64 4 5 4 C4.67 4.99 4.34 5.98 4 7 C2.35 6.67 0.7 6.34 -1 6 C-0.67 4.02 -0.34 2.04 0 0 Z " fill="#757575" transform="translate(936,705)"/>
<path d="M0 0 C0 2 0 2 -2.375 4.5625 C-5 7 -5 7 -7 8 C-6.44414399 4.1090079 -4.34122117 0 0 0 Z " fill="#4578B3" transform="translate(400,432)"/>
<path d="M0 0 C0.33 0.66 0.66 1.32 1 2 C1.99 2.33 2.98 2.66 4 3 C2.68 3 1.36 3 0 3 C0.309375 3.928125 0.309375 3.928125 0.625 4.875 C0.74875 5.57625 0.8725 6.2775 1 7 C0.34 7.66 -0.32 8.32 -1 9 C-1.97608217 6.07175348 -2.08226668 4.04386724 -2 1 C-1.34 0.67 -0.68 0.34 0 0 Z " fill="#854A3F" transform="translate(614,419)"/>
<path d="M0 0 C0.99 0 1.98 0 3 0 C3 1.65 3 3.3 3 5 C2.01 5 1.02 5 0 5 C0 3.35 0 1.7 0 0 Z " fill="#322527" transform="translate(623,455)"/>
<path d="M0 0 C0.99 0 1.98 0 3 0 C3 0.99 3 1.98 3 3 C2.01 3 1.02 3 0 3 C0 2.01 0 1.02 0 0 Z " fill="#2E252F" transform="translate(1087,419)"/>
<path d="M0 0 C0.66 0 1.32 0 2 0 C1.67 1.32 1.34 2.64 1 4 C0.34 4 -0.32 4 -1 4 C-0.67 2.68 -0.34 1.36 0 0 Z " fill="#232D25" transform="translate(1077,444)"/>
<path d="" fill="#2B282B" transform="translate(0,0)"/>
</svg>
